<?xml version="1.0" encoding="UTF-8" standalone="no"?>
<!-- Created with Inkscape (http://www.inkscape.org/) -->

<svg
   version="1.1"
   id="svg525"
   width="1173.333"
   height="717.48297"
   viewBox="0 0 1173.333 717.48294"
   sodipodi:docname="hat.svg"
   inkscape:version="1.2.2 (b0a8486541, 2022-12-01)"
   xmlns:inkscape="http://www.inkscape.org/namespaces/inkscape"
   xmlns:sodipodi="http://sodipodi.sourceforge.net/DTD/sodipodi-0.dtd"
   xmlns="http://www.w3.org/2000/svg"
   xmlns:svg="http://www.w3.org/2000/svg">
  <defs
     id="defs529" />
  <sodipodi:namedview
     id="namedview527"
     pagecolor="#ffffff"
     bordercolor="#666666"
     borderopacity="1.0"
     inkscape:showpageshadow="2"
     inkscape:pageopacity="0.0"
     inkscape:pagecheckerboard="0"
     inkscape:deskcolor="#d1d1d1"
     showgrid="false"
     inkscape:zoom="0.2065344"
     inkscape:cx="798.8984"
     inkscape:cy="571.3334"
     inkscape:window-width="1920"
     inkscape:window-height="1011"
     inkscape:window-x="0"
     inkscape:window-y="0"
     inkscape:window-maximized="1"
     inkscape:current-layer="g535">
    <inkscape:page
       x="0"
       y="0"
       id="page531"
       width="1173.333"
       height="717.48291" />
  </sodipodi:namedview>
  <g
     id="g533"
     inkscape:groupmode="layer"
     inkscape:label="Page 1"
     transform="matrix(1.3333333,0,0,-1.3333333,0,1142.6667)">
    <g
       id="g535"
       transform="scale(0.1)">
      <path
         d="m 8692.0993,5231.0392 c 33,374.84 -325.17,726.19 -601.77,1016.59 -351.94,386.33 -900.94,702.24 -1397.36,882.83 -1528.4,564.42 -3460.19,337.13 -4963.7,-189.17 -1120.62003,-405.29 -2165.92003,-1405.26 -1315.41003,-2603.53 763.74003,-1122.05 2790.51003,-1001.89 4007.18003,-1019.41 1104.17,-31.53 2223.83,190.59 3193.75,787.54 589.29,343.5 1456.31,697.37 931.91,1419.19"
         style="fill:#ed1f24;fill-opacity:1;fill-rule:nonzero;stroke:none"
         id="path539" />
      <path
         d="m 8799.9993,5231.6792 c -2.8,818.24 -1033.86,1510.38 -1674.95,1832.38 -1004.09,504.28 -2194.75,563.39 -3292.88,458.13 -1324.27,-126.9 -4135.08003,-700.94 -3805.520033,-2598.97 341.700003,-1968.65 3364.530033,-1739.45 4793.100033,-1713.01 1057.74,19.48 2027.67,332.14 2939,853.57 588.34,336.67 1378.15,749 881.75,1514.77 -75.5,116.54 -262.98,9.64 -187.3,-107.11 310.9,-479.62 -23.6,-761.99 -423.88,-1006.83 -305.32,-186.76 -623.23,-365.98 -944.35,-523.44 -782.23,-383.43 -1668.67,-518.1 -2532.06,-517.56 -1398.37,0.78 -3735.56003,-210.31 -4292.82003,1456.59 -246.220003,736.54 375.64,1355.04 946.64003,1699.3 760.94,458.9 1757.88,628.67 2626.99,726.81 905.19,102.38 1830.64,43.03 2700.38,-234.09 470.11,-149.82 910.74,-397.6 1288.37,-713.67 318.22,-266.35 760.33,-690.52 761.83,-1128.43 0.4,-138.94 216.2,-137.81 215.7,1.56 v 0"
         style="fill:#000000;fill-opacity:1;fill-rule:nonzero;stroke:none"
         id="path541" />
      <path
         d="m 1844.0693,6453.6292 c -50.72,348.62 770.81,660.35 992.83,852.03 347.77,264.69 708,551.2 1085.17,769.91 594.9,354.8 1320.29,402.21 2016.25,350.35 566.09,-35.28 1408.89,-171.63 1254.41,-925.14 -158.66,-663.88 -300.35,-1541.05 -836.63,-1987.63 -816.89,-691.98 -2238.09,-832.8 -3194.22,-602.16 -343.84,81.65 -670.82,95.54 -964.5,264.54 -209.76,120.69 -457.33,321.2 -449.17,577.99 20.75,278.51 -38.19,515.77 95.86,700.11"
         style="fill:#ed1f24;fill-opacity:1;fill-rule:nonzero;stroke:none"
         id="path543" />
      <path
         d="m 1951.8993,6454.3092 c 1.93,355.67 677.45,555.55 912.46,737.27 483.24,373.45 971.79,783.47 1553.88,991.6 665.8,238.03 2922.85,426.13 2640.29,-782.22 -141.24,-604 -255.81,-1245.25 -682.31,-1722.55 -372.08,-416.3 -1002.36,-596.4 -1529.12,-697.47 -543.34,-104.27 -1120.06,-85.57 -1658.23,34.41 -321.16,71.58 -639.1,104.97 -937.77,253.53 -389.9,193.89 -520.38,748.42 -313.68,1130.84 66.04,122.21 -120.8,230.12 -187.01,107.61 -264.03,-488.44 -132.97,-1053.56 301.66,-1368.88 310.5,-225.26 719.97,-253.96 1082.62,-332 364.68,-78.5 726.24,-110.5 1099.36,-103.55 693.79,12.72 1399.19,195.3 1984.45,571.79 665.32,427.89 853.55,1218.24 1019.11,1941.37 122.58,535.58 77.36,938.59 -478.41,1166.58 -553.58,227.13 -1318.73,219.83 -1895.04,124.87 -831.32,-137.01 -1449.6,-625.74 -2103.18,-1125.11 -322.14,-246.09 -1022.23,-433.82 -1024.9,-929.56 -0.76,-139.07 215.13,-137.83 215.82,1.47 v 0"
         style="fill:#000000;fill-opacity:1;fill-rule:nonzero;stroke:none"
         id="path545" />
      <path
         d="m 6313.6093,7048.6392 c -334.76,281.05 -819.23,166.41 -1208.64,79.41 -641.56,-143.45 -1283.69,-383.25 -1945.03,-403.79 31.45,-53.84 62.86,-107.76 94.27,-161.68 123.36,273.04 450.37,360.8 701.96,478.41 299.57,140.08 585.94,348.6 817.81,583.01 97.94,99.08 -53.92,252.38 -151.66,153.48 -266.76,-269.79 -600.13,-475.36 -946.66,-627.66 -245.34,-107.96 -493.2,-224.63 -608.47,-479.63 -31.98,-70.81 5.76,-164.42 94.27,-161.68 506.45,15.77 1014.98,155.6 1503.73,282.52 399.2,103.66 1129.84,412.32 1494.97,105.83 105.84,-88.78 259.95,62.41 153.45,151.78 v 0"
         style="fill:#000000;fill-opacity:1;fill-rule:nonzero;stroke:none"
         id="path547" />
      <path
         d="m 1748.9593,5932.2192 c 134.26,-129.73 429.27,-115.77 600.59,-135.59 261.15,-45.22 522.26,-90.51 775.1,-104.66 466.4,-5.9 944.28,7.98 1413.76,52.79 764.73,58.83 1712.02,117.56 2366.2,528.67 -247.65,-67.5 -330.2,-256.29 -463.3,-442.28 -155.87,-225.36 -336.41,-357.77 -567.55,-487.25 -535.56,-295.64 -1117.6,-354.54 -1710.89,-433.15 -492.22,-84.31 -1242.57,-72.64 -1696.58,136.13 -246.71,115.67 -792.58,482.35 -611.02,797.88"
         style="fill:#000000;fill-opacity:1;fill-rule:nonzero;stroke:none"
         id="path549" />
      <path
         d="m 1695.1593,5838.7092 c 293.48,-198.94 758.4,-172.62 1095.64,-221.3 522.14,-75.31 1067.53,-33.06 1591.48,5.69 871.76,64.36 1803.66,103.27 2575.85,556.8 102.62,60.14 35.45,243.47 -81.63,197.83 -367.54,-143.3 -485,-494.52 -766.62,-749.29 -413.17,-373.84 -1035.93,-480.31 -1566.55,-559.03 -536.67,-79.53 -1061.17,-136.19 -1601.19,-51.1 -263.26,41.56 -1163.7,359.64 -993.36,772.64 52.19,126.7 -134.07,235.97 -187.02,107.62 -360.54,-874.91 1296.6,-1139.11 1800.98,-1144.75 599.47,-6.7 1258.82,107.29 1832.54,272.84 269.12,77.65 546.91,204.28 769.56,374.39 275.42,210.25 449.34,644.19 767.81,768.32 -27.19,65.93 -54.45,131.9 -81.63,197.83 -697.7,-409.57 -1525.27,-454.24 -2313.4,-514.45 -471.6,-36.01 -940.51,-56.46 -1413.76,-52.79 -249.57,2.02 -501.91,59.09 -747.27,101.3 -201.19,34.52 -393.42,2.24 -573.85,124.58 -115.21,78.05 -221.92,-109.49 -107.58,-187.13 v 0"
         style="fill:#000000;fill-opacity:1;fill-rule:nonzero;stroke:none"
         id="path551" />
      <path
         d="m 3183.4493,6247.7092 c 310.65,-231.23 1257.83,235.52 1609.68,348.11 309.58,84.45 579.99,191.33 911.26,131.95 280.75,-56.5 333.33,-191.81 549,-315.91 -135.13,-53.48 -424.12,34.04 -615.04,65.14 -221.83,22.69 -455.15,25.61 -680.04,-2.51 -520.07,-41.88 -1255.76,-367.95 -1774.86,-226.78"
         style="fill:#bc2030;fill-opacity:1;fill-rule:nonzero;stroke:none"
         id="path553" />
      <path
         d="m 3129.6493,6154.2092 c 337.06,-192.07 793.04,2.3 1121.85,121.38 234.13,84.84 460.42,185.14 700.24,253.06 204.41,57.94 400.68,105.02 614.84,107.05 266.3,2.5 433.72,-184.85 632.93,-317.3 8.53,65.88 17.15,131.72 25.72,197.68 -229.02,-46.05 -491.05,60.82 -722.06,80.03 -223.89,18.6 -458.04,6.76 -679.76,-29.36 -527.84,-86 -1073.7,-327.03 -1613,-214.56 -135.6,28.24 -190.66,-180.45 -54.11,-208.94 505.42,-105.42 1004.95,64.28 1495.59,173.89 340.52,76.09 717.18,101.12 1061.85,36.13 193.38,-36.5 372.35,-84.72 567.69,-45.47 99.06,19.87 98.04,149.61 25.73,197.69 -192.66,128.08 -361.83,302.7 -603.56,330.27 -333.1,38.03 -620.31,-45.44 -938.61,-135.71 -405.51,-114.98 -1112.32,-595.58 -1527.88,-358.74 -120.7,68.85 -228.31,-118.17 -107.46,-187.1 v 0"
         style="fill:#bc2030;fill-opacity:1;fill-rule:nonzero;stroke:none"
         id="path555" />
      <path
         d="m 7189.5593,5952.0292 c -165.17,-377.54 -453.94,-788.9 -831.69,-991.64 -419.95,-230.93 -788.36,-281.42 -1193.94,-441.86 810.23,-361.17 1528.35,-65.62 2339.43,255.3 197.13,70.38 444.78,137.88 594.43,261.77 214.59,191.58 21.61,355.1 -137.39,577.83 -91.86,157.91 -810.17,860 -844.2,301.95"
         style="fill:#bc2030;fill-opacity:1;fill-rule:nonzero;stroke:none"
         id="path557" />
      <path
         d="m 7096.0493,6005.8392 c -180.83,-387.64 -419.37,-726.75 -791.73,-951.8 -353.41,-213.57 -784.53,-288.61 -1168.39,-431.38 -107.07,-39.85 -99.36,-167.66 1.04,-208.61 607.69,-248 1192.04,-174.2 1800.78,29.55 326.73,109.42 687.71,221.24 996.62,372.88 200.68,98.71 383.61,212.41 357.49,457.56 -39.98,375.6 -1173.24,1458.35 -1280.02,668.33 -18.36,-135.91 190.35,-191.97 208.91,-53.99 40.94,303.04 448.95,-109.77 543.19,-205.22 65.03,-65.9 116.44,-141.48 171.88,-215.4 233.22,-311.64 -39.61,-444.01 -337.31,-547.44 -809.65,-281.22 -1551.24,-646.81 -2407.43,-297.33 0.3,-69.57 0.71,-139.11 1.04,-208.61 450.18,167.34 915,268.4 1329.97,519.23 351.15,212.07 592.65,603.73 760.98,964.62 58.37,125.13 -128.17,233.76 -187.02,107.61 v 0"
         style="fill:#bc2030;fill-opacity:1;fill-rule:nonzero;stroke:none"
         id="path559" />
      <path
         d="m 1449.4493,5868.3692 c -352.88,-295.71 -693.01003,-572.57 -872.48003,-1020.65 -538.090003,590.63 725.37003,1625.38 892.64003,1691.64 5.15,-81.73 -154.18,-908.92 -20.16,-670.99"
         style="fill:#bc2030;fill-opacity:1;fill-rule:nonzero;stroke:none"
         id="path561" />
      <path
         d="m 1373.5293,5945.1192 c -363.35,-304.73 -692.11003,-605.26 -890.19003,-1043.62 56.73,7.39 113.53,14.73 170.26,22.12 -382.88,475.33 450.05003,1323.07 869.57003,1522.09 -53.86,30.99 -107.57,61.9 -161.43,92.89 -5.76,-177.52 -195.02,-687.27 -1.92,-806.45 29.03,-17.9 78.76,-21.62 107.36,-0.14 33.21,25.01 52.66,47.57 75.78,82.56 76.83,116.2 -110.62,223.07 -187.01,107.61 49.27,-10.93 98.4,-21.77 147.67,-32.7 0.32,33.77 2.17,67.46 5.45,101.02 5.99,79.1 18.29,157.76 29.23,236.3 14.38,103.55 35.88,208.57 39.27,313.27 2.78,86.52 -92.16,125.72 -161.43,92.89 -567.70003,-269.3 -1415.46003302,-1240.94 -915.79003,-1861.13 41.7,-51.78 142.98,-38.26 170.25,22.12 190.92,422.46 506.80003,705.81 854.78003,997.67 106.74,89.64 -46.17,242.15 -151.85,153.5 v 0"
         style="fill:#bc2030;fill-opacity:1;fill-rule:nonzero;stroke:none"
         id="path563" />
      <path
         d="m 5213.7393,8052.5392 c 762.35,-5.52 1866.75,189.53 1564.86,-682.58 -99.11,371.98 -1301.69,504.85 -1564.86,682.58"
         style="fill:#bc2030;fill-opacity:1;fill-rule:nonzero;stroke:none"
         id="path565" />
      <path
         d="m 5214.4993,7944.6592 c 289.49,0.4 578.53,18.7 868.1,12.99 388.86,-7.58 730.95,-99.88 591.6,-560.78 69.55,0.41 139.12,0.71 208.62,1.04 -217.99,569.64 -1168.49,483.18 -1615.2,748.09 -119.75,71 -227.21,-116.1 -107.61,-187.01 202.67,-120.21 453.39,-164.01 678.09,-224.99 225.15,-61.05 739.82,-139.84 836.4,-392.16 37.82,-98.84 175.61,-108.22 208.61,1.04 309.65,1023.88 -1067.24,818.34 -1670.05,817.49 -139.08,-0.13 -137.92,-215.98 1.44,-215.71 v 0"
         style="fill:#bc2030;fill-opacity:1;fill-rule:nonzero;stroke:none"
         id="path567" />
    </g>
  </g>
</svg>
