<svg width="2916" height="1460" xmlns="http://www.w3.org/2000/svg">

 <g>
  <title>Layer 3</title>
  <g transform="translate(2467.08, 1447.99) matrix(2.58991, 0, 0, 2.58991, -6232.35, -1425.23)" id="imagebot_148">
   <path id="imagebot_149" d="M2125.824,20.85C2137.254,17.6 2150.694,23.82 2154.944,35.08C2157.214,40.51 2156.034,46.53 2153.954,51.81C2158.084,53.38 2163.374,54.53 2165.164,59.14C2166.774,63.84 2163.314,68.19 2160.864,71.88C2156.384,78.13 2148.484,81.05 2140.974,80.24C2137.694,80.18 2134.504,78.64 2131.284,79.07C2128.534,81.19 2126.924,84.34 2125.134,87.22C2125.954,89.74 2127.474,92.55 2126.114,95.17C2119.914,106.77 2108.934,115.39 2104.204,127.84C2106.994,131.53 2110.044,135.05 2113.384,138.27C2113.474,138.36 2113.654,138.54 2113.744,138.63C2124.224,149.85 2139.314,155.1 2153.804,158.91C2167.234,148.45 2179.824,136.48 2189.204,122.19C2190.564,120.48 2193.024,121.67 2194.864,121.72C2199.544,116.06 2204.714,110.22 2206.764,103.02C2206.144,98.82 2203.284,95.37 2201.434,91.64C2197.404,85.03 2194.864,76.56 2198.054,69.09C2200.884,63.41 2206.414,59.67 2212.004,57C2218.554,54.06 2226.894,53.83 2232.984,58.01C2238.654,61.38 2241.664,67.49 2243.894,73.45C2249.464,73.19 2255.484,72.56 2260.534,75.5C2266.124,78.39 2268.974,84.91 2268.504,91.03C2268.224,97.54 2263.504,102.81 2258.384,106.32C2250.964,110.88 2242.534,113.62 2233.954,114.89C2230.034,115.8 2225.864,115.58 2222.104,116.97C2218.554,119.59 2216.004,123.27 2213.834,127.04C2212.114,129.65 2210.284,132.18 2208.884,134.97C2211.814,136.51 2216.504,137.1 2217.114,141.04C2217.484,143.63 2214.724,144.88 2212.854,145.85C2205.484,148.96 2200.274,155.29 2195.224,161.22C2191.854,165.52 2188.494,169.88 2185.884,174.69C2200.294,184.01 2213.944,194.75 2225.354,207.62C2230.824,214.09 2235.934,221.11 2238.914,229.11C2246.734,251.5 2244.664,275.9 2240.054,298.74C2244.514,296.69 2249.694,294.22 2254.604,296.32C2256.614,297.11 2257.074,299.48 2257.514,301.37C2258.614,307.96 2256.774,314.59 2254.034,320.54C2256.384,321.18 2258.914,321.59 2261.024,322.95C2262.334,324.15 2262.694,326.01 2263.424,327.6C2270.584,327.04 2277.694,329.38 2283.554,333.46C2287.684,336.46 2290.694,341.75 2289.164,346.94C2286.954,354.98 2279.564,359.88 2272.654,363.64C2272.694,369.98 2269.734,376.96 2263.704,379.68C2259.484,381.86 2254.644,381.87 2250.054,382.22C2250.464,383.01 2250.904,383.8 2251.374,384.61C2269.264,385.63 2287.154,386.63 2305.004,388.24C2326.614,387.45 2348.424,392.42 2367.584,402.45C2373.774,405.96 2379.864,410.14 2383.884,416.15C2388.264,422.07 2388.084,430.86 2383.704,436.73C2378.304,444.47 2369.964,449.35 2361.914,453.89C2334.024,469 2302.974,476.86 2272.084,483.11C2264.784,484.5 2257.364,485.23 2250.154,486.97C2245.644,489.08 2241.544,491.96 2237.004,494.01C2220.674,501.44 2203.654,507.18 2186.574,512.6C2168.744,517.86 2150.854,523.09 2132.574,526.57C2110.754,531.58 2088.224,530.51 2066.014,530.89C2008.304,531.03 1950.554,531.38 1892.904,528.63C1873.894,527.75 1854.854,526.73 1836.014,524.04C1795.064,516.58 1755.564,502.96 1716.714,488.29C1709.824,485.79 1703.274,482.04 1695.904,481.17C1667.684,476.63 1639.134,471.58 1612.774,460.12C1604.734,456.34 1596.804,451.88 1590.564,445.47C1585.624,440.23 1581.814,433.39 1582.034,426.01C1581.864,419.39 1584.984,413.14 1589.224,408.23C1595.654,401.17 1604.264,396.61 1613.004,393.04C1630.734,385.93 1649.734,382.98 1668.584,380.68C1670.494,377.38 1672.964,374.07 1676.794,372.91C1685.304,370.33 1694.284,371.83 1702.914,372.95C1704.484,371.52 1705.924,369.92 1707.064,368.1C1703.824,364.06 1700.414,359.48 1700.824,354C1701.304,345.23 1708.204,338.42 1715.594,334.55C1724.174,329.27 1735.174,329.52 1744.214,333.51C1743.684,324.59 1747.274,315.84 1753.364,309.4C1765.694,295.85 1782.514,287.72 1798.734,279.82C1816.484,272.59 1831.014,259.69 1845.334,247.32C1877.584,218.28 1907.644,186.95 1939.414,157.4C1952.354,145.62 1964.664,132.85 1979.724,123.7C1995.954,113.51 2014.724,107.23 2033.924,106.36C2048.444,105.69 2063.114,107.8 2076.804,112.73C2086.234,101.09 2096.174,89.74 2103.984,76.92C2105.644,74.56 2108.684,76.44 2110.894,76.82C2113.114,71.9 2115.384,66.64 2114.534,61.11C2113.204,51.81 2112.174,42.14 2114.744,32.95C2116.174,27.47 2120.294,22.52 2125.824,20.85M2120.654,29.65C2116.654,36.36 2116.874,44.52 2117.394,52.04C2117.654,57.17 2119.474,62.28 2118.394,67.42C2117.554,71.88 2115.394,75.91 2113.924,80.16C2114.504,82.77 2115.944,85.1 2116.934,87.58C2118.144,87.37 2119.344,87.08 2120.554,86.7C2123.704,82.48 2125.924,76.91 2131.054,74.69C2136.354,75.1 2141.624,77.32 2147.034,76.05C2153.934,74.9 2158.844,69.07 2161.464,62.94C2162.624,60.37 2159.804,58.75 2158.144,57.43C2155.774,56.58 2153.354,55.9 2150.944,55.33C2146.734,59.14 2141.514,61.6 2135.904,62.43C2135.444,61.36 2135.074,60.27 2134.814,59.16C2139.674,57.23 2145.234,55.94 2148.634,51.6C2154.084,45.26 2152.644,34.88 2146.434,29.58C2142.664,25.81 2137.184,24.38 2132.004,24.21C2127.694,24.08 2122.824,25.65 2120.654,29.65M2201.804,70.87C2198.794,76.71 2201.714,83.22 2204.304,88.62C2206.644,93.51 2211.004,98.01 2210.664,103.75C2208.754,112.22 2202.324,118.57 2197.334,125.33C2197.754,128.62 2199.744,131.49 2200.944,134.55C2202.324,134.36 2204.414,135.05 2205.134,133.3C2209.014,126.66 2213.004,119.96 2218.554,114.55C2221.514,111.46 2226.154,112.5 2229.964,111.57C2240.514,109.71 2251.724,107.33 2259.944,99.95C2265.404,95.05 2265.964,85.52 2260.624,80.37C2256.104,76.72 2249.864,77.23 2244.444,77.68C2244.134,79.24 2243.794,80.8 2243.864,82.4C2242.254,84.72 2240.354,88.08 2237.034,86.43C2238.244,83.41 2240.224,80.45 2239.864,77.04C2239.574,67.05 2230.304,57.49 2219.974,58.96C2212.734,60.23 2205.274,64.14 2201.804,70.87M2101.734,87.79C2095.114,96.81 2087.964,105.42 2080.964,114.15C2084.954,116.17 2088.924,118.23 2092.954,120.2C2095.494,121.96 2098.014,123.77 2100.714,125.31C2105.584,114.03 2115.004,105.66 2121.354,95.31C2121.884,93.94 2123.774,92.03 2121.774,91.03C2118.374,91.01 2115.094,92.05 2111.844,92.84C2112.024,90.99 2112.584,89.16 2112.514,87.29C2111.574,84.37 2109.384,82.09 2107.634,79.66C2105.134,81.96 2103.714,85.1 2101.734,87.79M1986.425,124.43C1971.725,132.41 1959.645,144.15 1947.465,155.42C1916.745,183.7 1887.715,213.75 1857.065,242.1C1843.435,254.58 1829.565,267.03 1813.805,276.8C1806.855,281.15 1798.965,283.68 1791.915,287.81C1782.575,292.07 1773.765,297.45 1765.545,303.57C1758.395,309.13 1751.615,315.99 1748.965,324.88C1747.035,331.48 1748.845,338.67 1752.995,344.04C1763.355,358.47 1776.685,370.46 1790.405,381.62C1805.945,393.97 1822.795,404.73 1840.735,413.26C1848.295,416.48 1855.695,420.46 1863.835,422.04C1864.425,422.61 1865.135,423.08 1865.955,423.44C1869.955,416.68 1876.025,411.04 1883.595,408.6C1885.935,407.66 1888.925,407.79 1890.585,405.59C1899.125,396.48 1909.195,388.08 1921.345,384.45C1933.005,383.17 1944.255,379.62 1955.885,378.07C1967.695,376 1979.525,373.92 1991.455,372.63C2001.565,372.03 2011.765,370.87 2021.855,372.43C2024.885,372.64 2026.565,375.52 2028.555,377.46C2031.655,380.6 2033.475,385.19 2032.555,389.61C2031.775,394.31 2028.175,397.73 2024.995,400.97C2017.745,407.54 2009.585,413.01 2001.565,418.57C1984.625,429.89 1967.885,441.53 1950.835,452.65C1963.895,455.36 1977.325,457.13 1990.695,456.26C1992.595,456.02 1994.535,455.8 1996.485,455.61C1996.235,445.44 2004.315,435.31 2014.765,434.57C2014.475,431.1 2013.755,427.13 2016.225,424.24C2020.695,418.3 2029.035,417.56 2035.865,418.56C2035.975,414.42 2035.875,409.3 2039.675,406.65C2043.195,403.85 2047.875,404.09 2052.095,404.58C2050.065,398.21 2048.395,391.17 2050.705,384.64C2052.715,379 2058.745,376.4 2064.165,375.14C2072.405,373.29 2082.455,375.2 2087.465,382.57C2090.345,386.39 2090.785,391.32 2091.085,395.93C2094.685,395.57 2098.315,395.47 2101.935,395.92C2103.165,390.92 2105.365,385.71 2110.035,383.01C2114.645,379.99 2122.185,379.22 2125.365,384.66C2128.155,390.67 2126.105,397.6 2124.215,403.59C2128.345,403.52 2132.485,404.37 2135.945,406.74C2140.395,404.29 2145.515,401.93 2150.705,403.31C2154.105,404.02 2156.555,406.64 2158.995,408.92C2160.745,406.15 2162.005,402.61 2165.265,401.27C2170.135,398.95 2175.755,399.37 2180.845,400.77C2202.235,382.18 2216.805,356.94 2226.735,330.68C2229.335,322.4 2233.165,314.34 2233.855,305.59C2235.775,302.37 2235.875,298.37 2236.815,294.78C2239.505,281.7 2240.225,268.26 2239.705,254.94C2239.405,246.74 2238.175,238.52 2235.205,230.85C2232.235,222.59 2226.885,215.44 2221.115,208.94C2210.175,197.01 2197.365,186.93 2183.835,178.1C2168.385,203.58 2160.285,233.27 2159.295,263C2157.345,302.37 2125.935,338.68 2086.805,344.95C2069.345,347.89 2050.945,343.64 2036.345,333.71C2028.505,328.41 2021.305,322 2015.655,314.4C2006.085,298.18 2000.385,278.99 2003.005,260.07C2005.555,242.35 2014.865,226.02 2027.865,213.85C2043.055,199.23 2062.645,189.62 2083.125,185.04C2092.245,183.32 2101.665,183.38 2110.615,180.71C2121.785,177.99 2132.265,173.01 2142.045,167.05C2144.545,165.5 2147.285,164.12 2149.145,161.75C2136.545,158.5 2124.205,153.18 2114.035,144.96C2108.125,140.51 2104.795,133.55 2098.795,129.22C2085.645,119 2069.405,113.4 2053.045,111.09C2030.155,107.97 2006.425,112.98 1986.425,124.43M2191.474,126.39C2182.604,138.7 2171.794,149.52 2160.114,159.15C2144.244,171.82 2125.934,182.2 2105.774,185.89C2098.854,187.37 2091.714,187.37 2084.824,188.96C2071.844,191.33 2059.504,196.53 2048.214,203.25C2033.624,212.25 2020.694,224.69 2013.284,240.32C2004.094,258.54 2004.694,280.77 2012.694,299.31C2015.334,305.86 2018.384,312.5 2023.524,317.51C2030.914,325.35 2039.624,332.15 2049.604,336.35C2062.484,342.08 2077.234,343.52 2090.934,340.09C2125.694,331.98 2152.754,299.44 2155.284,263.97C2155.714,255.55 2155.974,247.08 2157.494,238.77C2162.474,209.96 2173.764,181.96 2191.904,158.9C2197.704,151.66 2204.334,144.69 2213.094,141.14C2206.694,137.61 2198.994,137.62 2192.304,140.32C2192.164,139.53 2191.864,137.95 2191.724,137.16C2193.184,136.08 2195.534,135.74 2196.364,134C2195.334,131.35 2194.094,128.78 2192.634,126.35C2192.344,126.36 2191.764,126.38 2191.474,126.39M2240.984,302.97C2238.374,304.11 2238.394,307.27 2237.604,309.6C2231.964,331.58 2222.844,352.59 2210.974,371.91C2220.244,372.34 2229.674,372.48 2238.584,375.46C2245.124,377.83 2252.354,378.99 2259.194,377.22C2264.264,375.9 2268.344,371.1 2268.454,365.8C2265.394,366.08 2262.364,366.52 2259.374,367.09C2258.464,369.46 2257.324,371.75 2255.934,373.88C2254.984,373.5 2254.064,373.13 2253.184,372.76C2255.284,368.05 2254.244,362.17 2250.064,358.96C2248.294,357.86 2248.684,355.05 2251.014,355.25C2254.434,356.44 2256.334,359.89 2258.524,362.57C2259.744,362.64 2261.014,362.72 2262.304,362.81L2262.474,362.16C2269.784,361.64 2276.404,357.6 2281.414,352.44C2283.914,349.63 2286.554,345.8 2285.284,341.86C2283.834,337.59 2279.484,335.46 2275.714,333.64C2271.834,331.97 2267.344,330.73 2263.224,332.09C2259.344,334.51 2254.764,336.51 2252.594,340.79C2255.224,342.84 2258.654,345.14 2257.984,349.02C2254.774,349.39 2253.294,346.23 2250.844,344.9C2247.554,344.22 2244.564,346.24 2242.044,348.05C2239.884,349.43 2237.864,352.04 2235.014,351C2235.734,344.87 2242.874,343.13 2247.474,340.53C2250.054,337.76 2251.794,334.22 2254.934,331.95C2256.934,330.54 2258.444,328.58 2259.024,326.16C2257.944,325.82 2256.894,325.51 2255.854,325.23C2250.564,323.33 2245.734,327.97 2240.384,326.45C2240.254,325.2 2240.264,323.96 2240.404,322.72C2243.164,322.52 2246.414,322.75 2248.454,320.46C2252.054,316.6 2253.404,311.12 2253.834,305.99C2253.784,303.77 2254.104,300.55 2251.704,299.44C2247.854,299.33 2244.274,301.22 2240.984,302.97M1709.785,343.79C1705.625,347.79 1703.665,354.38 1706.185,359.77C1708.625,364.95 1713.845,368.28 1719.195,369.89C1722.745,371.18 1726.245,369.06 1729.805,368.83C1729.885,369.62 1730.035,371.21 1730.115,372C1724.275,376.36 1716.875,373.87 1710.945,371.15C1709.435,372.23 1707.765,373.2 1706.765,374.8C1704.335,377.84 1707.435,381.28 1707.975,384.45C1706.735,384.3 1705.465,384.28 1704.325,383.81C1701.835,382.28 1702.025,378.76 1700.075,376.9C1695.565,375.45 1690.715,375.46 1686.035,375.49C1681.505,375.68 1676.115,376.39 1673.375,380.46C1671.545,384.03 1671.765,388.63 1674.005,391.98C1676.635,396.22 1681.315,398.68 1685.975,400.07C1689.735,401.24 1693.835,400.01 1697.535,401.52C1699.115,402.28 1700.795,401.98 1702.375,401.31C1708.155,400.18 1714.055,399.35 1719.965,399.73C1722.965,399.73 1726.245,400.57 1728.995,398.91C1739.055,393.43 1750.825,393.21 1761.985,393.1C1771.615,392.69 1781.515,393.61 1790.415,397.52C1796.305,400.29 1802.035,405.21 1802.805,412.06C1803.525,415.92 1801.805,419.55 1800.225,422.95C1806.505,425.85 1812.955,429.09 1817.265,434.72C1819.225,437.65 1822.905,438.32 1825.495,440.51C1827.305,441.99 1829.145,443.49 1830.675,445.3C1832.225,447.87 1832.665,451.03 1834.625,453.39C1836.315,455.47 1839.605,455 1841.635,453.65C1844.065,452 1846.595,450.28 1848.375,447.89C1849.135,444.23 1845.475,441.96 1843.895,439.1C1844.995,438.62 1846.415,436.75 1847.655,438.06C1851.555,441.06 1852.455,446.54 1856.565,449.39C1859.765,451.77 1863.455,455.44 1867.805,454.11C1869.535,452.19 1870.445,449.57 1870.585,447.01C1869.915,444.39 1868.315,442.14 1867.345,439.64C1865.575,435.71 1865.455,431.34 1865.105,427.13C1861.545,425.91 1857.945,424.86 1854.445,423.51C1820.825,410.38 1790.335,389.64 1764.875,364.13C1758.055,357.18 1751.375,349.89 1746.645,341.32C1744.785,337.97 1740.875,336.68 1737.475,335.51C1727.584,332.37 1716.854,336.76 1709.785,343.79M1936.734,385.77C1930.264,387.61 1923.324,387.41 1917.154,390.24C1907.754,394.48 1899.954,401.49 1892.994,408.97C1891.454,410.85 1889.024,411.33 1886.834,411.95C1879.594,413.85 1872.404,418.57 1869.964,425.96C1868.184,430.7 1870.094,435.71 1871.914,440.13C1876.254,449.89 1885.124,457.55 1895.434,460.38C1905.964,462.83 1917.274,461.99 1927.424,458.3C1939.554,454.57 1950.624,448.12 1961.124,441.12C1978.234,429.18 1995.854,417.99 2012.764,405.76C2018.434,401.25 2024.884,396.97 2028.184,390.29C2030.144,386.29 2027.354,382.18 2024.844,379.19C2021.564,374.99 2015.684,375.89 2010.994,375.59C1985.944,376.14 1961.255,381.01 1936.734,385.77M2208.194,375.89C2201.114,385.78 2193.374,395.3 2184.114,403.25C2184.434,404.16 2184.784,405.09 2185.164,406.01C2189.834,403.42 2194.304,400.34 2199.424,398.65C2202.114,397.74 2205.424,397.31 2207.824,399.24C2210.464,401.71 2211.344,405.41 2212.104,408.82C2215.914,407.38 2220.194,405.01 2224.294,406.79C2227.774,408.47 2226.954,412.92 2227.174,416.08C2232.524,413.73 2238.124,410.95 2241.804,406.31C2246.494,402.12 2249.674,395.57 2248.644,389.19C2248.004,384.82 2244.394,381.33 2240.254,380.17C2235.914,378.35 2231.204,377.88 2226.614,377.23C2220.514,376.33 2214.344,375.83 2208.194,375.89M2063.354,379.43C2059.754,380.55 2055.714,382.52 2054.544,386.4C2052.804,392.17 2054.494,398.24 2056.224,403.8C2057.444,407.88 2060.924,410.76 2062.264,414.78C2063.804,419.66 2062.744,425.44 2059.114,429.14C2058.154,430.43 2056.534,430.7 2055.194,429.92C2054.774,426.44 2058.344,424.16 2058.754,420.82C2060.074,413.27 2051.874,406.21 2044.574,408.56C2038.894,410.09 2038.534,418.14 2042.064,421.96C2045.964,426.28 2046.224,433.23 2042.884,437.93C2041.874,439.29 2040.334,438.32 2039.154,437.9C2040.034,434.46 2042.104,430.88 2040.754,427.3C2039.894,424.62 2037.154,423.45 2034.854,422.34C2029.914,421.64 2024.504,422.26 2020.494,425.46C2017.504,428.23 2018.364,433.09 2020.784,435.96C2022.604,437.23 2024.044,438.94 2025.094,440.91C2023.824,441.4 2022.574,441.87 2021.324,442.3C2020.134,440.85 2018.994,439.02 2016.954,438.85C2010.234,437.67 2004.244,443.02 2001.884,448.91C2000.994,451.05 1999.544,454.37 2002.324,455.79C2006.514,458.2 2011.564,458.21 2016.274,458.08C2024.384,458.29 2032.544,457.24 2040.514,455.73C2041.474,451.62 2042.934,447.62 2045.274,444.09C2046.224,444.66 2048.424,444.38 2048.294,445.99C2047.554,448.67 2045.804,450.95 2045.194,453.67C2046.474,455.3 2047.954,456.78 2049.324,458.37C2058.254,456.19 2065.304,449.81 2073.914,446.87C2075.634,446.11 2077.504,446.45 2079.294,446.88C2079.224,447.61 2079.094,449.09 2079.024,449.82C2075.404,450.51 2071.754,451.53 2068.874,453.91C2085.124,458.14 2101.594,448.26 2117.764,453.01C2119.314,455.64 2122.534,454.39 2124.634,453.2C2123.384,450.83 2121.554,447.99 2123.284,445.37C2127.094,439.22 2133.994,436.15 2140.184,432.94C2141.124,427.57 2142.204,421.34 2147.004,417.98C2150.174,415.52 2154.344,416.38 2158.054,416.59C2156.694,413.1 2154.914,409.24 2151.214,407.76C2146.064,406.14 2140.394,407.96 2136.434,411.43C2130.544,416.04 2127.664,423.26 2125.974,430.32C2125.174,430.27 2123.594,430.17 2122.804,430.12C2122.534,422.03 2127.524,415.03 2132.374,409C2129.254,407.99 2125.524,406.75 2122.474,408.36C2120.624,411.23 2119.654,414.7 2117.154,417.13C2116.234,418.2 2114.644,417.74 2113.814,416.89C2113.824,414.76 2115.284,413.06 2116.254,411.28C2119.834,405.48 2121.884,398.77 2122.494,391.99C2122.494,389.52 2122.534,385.98 2119.824,384.88C2115.084,383.72 2110.034,386.75 2108.024,391.03C2103.804,399.08 2105.344,408.45 2106.104,417.11C2104.834,417.43 2102.874,418.52 2102.484,416.55C2100.754,411.29 2102.144,405.36 2099.424,400.37C2097.524,398.62 2094.534,399.67 2092.364,400.3C2089.524,401.04 2089.874,404.61 2088.744,406.76C2088.384,408.45 2086.224,407.69 2085.074,407.95C2085.264,402.92 2087.134,398.06 2086.684,392.99C2086.354,389.01 2085.104,384.71 2081.774,382.21C2076.724,377.96 2069.444,377.78 2063.354,379.43M1613.175,397.25C1605.075,400.89 1596.815,405.13 1591.195,412.22C1586.775,417.36 1585.175,424.75 1586.855,431.3C1588.665,438.96 1594.845,444.61 1601.045,448.98C1619.055,460.85 1640.405,465.89 1661.115,470.84C1681.565,474.98 1702.155,478.53 1722.925,480.7C1747.565,483.5 1772.325,484.92 1797.035,486.96C1824.665,489.25 1852.355,490.45 1880.015,492.26C1907.345,493.72 1934.675,495.45 1962.045,496.01C1989.015,496.96 2016.005,497.75 2043.005,497.69C2065.385,497.6 2087.855,497.28 2110.095,494.5C2152.455,492.37 2194.915,490.57 2236.945,484.55C2251.295,483.11 2265.395,479.96 2279.585,477.51C2309.445,470.95 2339.515,462.75 2365.945,446.91C2372.465,442.67 2379.685,437.94 2382.395,430.26C2384.165,425.59 2382.325,420.39 2379.345,416.66C2374.375,410.71 2367.485,406.82 2360.645,403.42C2345.665,396.76 2329.425,392.64 2313.005,392.16C2302.995,392.71 2293.075,390.9 2283.105,390.46C2272.985,390.08 2262.885,389.4 2252.775,389.03C2252.735,391.04 2252.705,393.06 2252.695,395.08C2257.505,395.67 2262.025,398.36 2266.985,397.28C2286.835,397.38 2306.685,399.31 2326.205,402.89C2334.375,405.03 2343.035,406.94 2349.905,412.13C2353.425,414.79 2356.375,419.31 2355.055,423.87C2353.285,429.25 2348.985,433.28 2344.595,436.62C2330.015,447.2 2312.825,453.26 2295.895,458.92C2259.515,469.91 2221.845,476.12 2184.065,479.66C2135.205,484.61 2086.005,485.04 2036.975,483.24C1969.985,482.96 1902.955,482.41 1836.065,478.44C1808.735,477.46 1781.535,474.4 1754.335,471.78C1739.845,470.13 1725.455,467.72 1711.005,465.83C1690.655,462.41 1670.025,459.17 1650.855,451.2C1641.855,447.52 1632.865,443.05 1626.035,435.98C1622.085,431.85 1619.695,425.2 1622.925,419.95C1625.055,415.47 1629.935,413.72 1633.525,410.76C1637.725,409.11 1642.905,408.67 1645.795,404.82C1652.195,397.98 1662.035,395.81 1671.075,395.59C1670.255,393.52 1669.415,391.47 1668.635,389.4C1668.415,387.88 1668.225,386.35 1668.075,384.83C1649.405,386.86 1630.685,390.27 1613.175,397.25M1734.275,401.04C1745.105,403.7 1755.985,407.44 1764.605,414.79C1765.535,415.75 1766.495,416.91 1768.055,416.63C1777.485,416.59 1786.725,418.76 1795.845,420.97C1799.905,417.67 1799.845,411.3 1796.685,407.41C1793.985,403.38 1789.415,401.36 1785.045,399.73C1786.295,401.91 1788.635,404.03 1787.915,406.81C1787.055,409.78 1783.985,411.31 1781.355,412.42C1777.125,414.21 1772.465,413.44 1768.045,413.95C1766.145,412.18 1763.995,410.52 1762.895,408.11C1761.585,405.29 1761.325,402.15 1761.005,399.1C1765.225,397.73 1769.695,397.86 1774.075,397.55C1768.745,396.76 1763.355,396.91 1757.995,397.02C1749.984,397.28 1741.655,397.59 1734.275,401.04M2251.494,399.09C2246.994,410.45 2235.944,417.45 2224.864,421.35C2226.324,422.17 2227.844,422.87 2229.374,423.63C2234.904,426.28 2238.704,431.97 2239.424,438.02C2245.694,437.44 2252.004,435.12 2256.814,431.02C2263.434,427.65 2269.044,421.64 2271.524,414.58C2273.234,409.56 2268.244,406.07 2264.744,403.57C2260.724,401.12 2256.154,399.57 2251.494,399.09M1663.365,400.47C1658.525,401.55 1653.025,402.83 1649.815,406.87C1646.075,409.17 1644.855,413.88 1644.615,418C1644.425,421.74 1645.445,426.34 1649.205,428.03C1653.905,429.69 1658.775,427.28 1662.335,424.26C1664.675,421.87 1665.165,418.48 1666.575,415.58C1667.835,414.71 1669.815,415.57 1669.735,417.21C1669.965,421.31 1666.915,424.5 1664.945,427.8C1667.385,430.36 1670.315,432.87 1674.015,433.19C1676.985,433.3 1679.865,432.01 1682.245,430.31C1682.745,426.25 1681.735,422.07 1682.895,418.07C1684.215,412.51 1688.435,408.31 1692.915,405.07C1687.735,404.68 1682.585,403.55 1678.005,401.04C1673.545,398.34 1668.165,399.76 1663.365,400.47M2269.044,401.29C2271.254,403.23 2272.854,406.01 2275.364,407.52C2286.994,407.34 2299.564,406.65 2309.854,413.12C2313.704,415.11 2316.654,419.29 2315.644,423.78C2314.054,431.26 2308.114,436.84 2302.204,441.21C2296.534,444.92 2290.464,448.12 2283.914,449.93C2264.904,456.14 2244.264,455.56 2224.924,451.25C2220.494,450.13 2215.934,451.16 2211.464,451.23C2209.874,454.43 2207.734,458.09 2203.954,458.87C2200.574,460.05 2196.934,458.71 2193.594,459.59C2191.394,462.4 2190.544,466.4 2187.004,467.97C2179.964,471.52 2171.924,468.5 2164.844,466.6C2163.044,469.76 2161.664,474.87 2157.214,474.79C2152.754,473.84 2151.084,468.83 2147.524,466.51C2144.764,465.78 2142.904,468.57 2140.814,469.83C2135.654,473.43 2129.164,477.25 2122.684,475.22C2116.394,472.21 2115.094,463.79 2117.834,457.9C2115.044,456.67 2112.184,455.08 2109.054,455.53C2100.354,456.11 2091.664,457.18 2083.164,459.09C2076.624,459.87 2070.144,458.74 2064.164,456.23C2059.004,458.8 2053.884,462.06 2047.984,462.44C2044.914,462.48 2042.544,459.51 2039.404,460.28C2026.274,461.52 2012.454,464.38 1999.724,459.43C1989.354,460.73 1978.754,461.17 1968.344,459.72C1960.474,458.88 1952.794,456.89 1945.034,455.52C1932.004,461.68 1917.824,466.93 1903.154,465.81C1891.914,465.06 1881.294,459.6 1873.894,451.15C1872.714,454.36 1870.894,458.14 1867.014,458.45C1860.984,458.7 1856.124,454.27 1851.874,450.55C1847.984,453.83 1844.124,457.93 1838.924,458.86C1835.434,459.55 1832.714,456.99 1830.244,454.99C1827.234,458.28 1823.444,460.92 1818.944,461.52C1818.644,461.73 1818.054,462.15 1817.754,462.36C1813.814,462.05 1809.944,461.4 1806.054,460.83C1798.534,463.23 1790.944,465.7 1783.004,466.24C1770.654,466.89 1757.664,467.24 1746.234,461.78C1740.554,459.45 1735.734,454.98 1733.554,449.18C1722.004,449.62 1709.984,450.27 1698.994,446.05C1692.734,443.97 1687.384,439.84 1683.804,434.32C1680.514,436.19 1676.844,437.77 1672.984,437.17C1668.294,436.82 1664.894,433.29 1661.844,430.11C1656.534,432.33 1649.784,434.2 1644.874,430.1C1639.744,425.86 1640.644,418.59 1640.954,412.68C1637.094,413.7 1633.514,415.5 1630.264,417.77C1628.084,419.73 1625.594,421.88 1625.374,425.01C1625.084,428.89 1627.924,431.98 1630.384,434.63C1636.084,440.03 1643.254,443.45 1650.324,446.68C1672.204,455.95 1695.904,459.35 1719.234,462.92C1728.654,464.16 1738.024,466.3 1747.564,466.43L1747.904,466.77C1758.894,468.13 1769.904,469.38 1780.944,470.45C1786.424,470.7 1791.964,472.08 1797.424,471.67C1876.064,478.47 1955.134,478.66 2034.034,478.92C2078.184,480.84 2122.434,480.3 2166.524,477.3C2205.834,473.99 2245.144,468.81 2283.264,458.42C2302.244,452.91 2321.334,446.72 2338.214,436.19C2342.884,433.01 2347.634,429.5 2350.564,424.55C2351.974,422.27 2351.424,419.26 2349.594,417.39C2345.594,412.88 2339.584,411.03 2334.094,409.07C2312.914,403.35 2290.884,401.91 2269.044,401.29M1765.464,402.01C1765.474,405.42 1767.374,409.44 1771.174,409.78C1775.734,409.96 1780.704,409.03 1784.254,405.96C1783.294,404.58 1782.434,402.87 1780.654,402.48C1775.704,401.13 1770.495,401.89 1765.464,402.01M2188.134,409.13C2184.624,411.17 2185.674,416.23 2182.774,418.79C2181.764,418.59 2180.784,418.34 2179.854,418.05C2180.424,414.61 2182.334,411.14 2181.454,407.62C2179.904,403.47 2174.684,403.28 2170.984,403.71C2167.244,403.83 2164.124,406.6 2163.084,410.09C2161.034,416.55 2161.924,423.43 2161.794,430.1C2160.544,430.1 2159.324,430.09 2158.124,430.09C2157.734,427.13 2157.524,424.16 2157.544,421.19C2154.944,420.13 2151.694,419.38 2149.284,421.24C2146.414,423.49 2145.184,427.19 2144.574,430.65C2144.024,433.56 2145.934,436.16 2146.104,439.01C2145.994,441.04 2145.224,442.96 2144.684,444.9C2143.394,444.96 2141.734,445.59 2141.354,443.89C2141.434,441.58 2141.834,439.3 2142.014,437C2137.004,438.34 2132.634,441.37 2128.814,444.79C2127.604,445.99 2125.644,447.84 2127.304,449.51C2129.404,450.61 2131.724,451.24 2133.994,452.02C2134.244,452.53 2134.764,453.56 2135.014,454.08C2131.114,456.08 2126.204,455.69 2122.844,458.76C2119.644,461.24 2120.134,466.05 2121.724,469.31C2123.254,472.45 2127.354,472.22 2130.174,471.17C2135.734,469.41 2139.664,464.67 2145.044,462.59C2150.774,461.53 2153.934,467.53 2157.374,471C2162.564,466.36 2161.114,458.75 2163.924,453C2165.114,450.32 2168.964,450.87 2169.864,453.49C2166.714,455.7 2165.824,459.42 2165.784,463.06C2166.344,463.13 2167.454,463.27 2168.004,463.34C2173.304,465.06 2179.184,466.48 2184.684,464.83C2188.374,462.49 2188.874,456.83 2193.174,455.23C2198.204,454.87 2204.724,456.48 2207.594,450.96C2205.564,449.19 2201.584,447.22 2204.084,444.11C2207.584,445.5 2211.074,447.42 2214.984,447.19C2221.024,447.01 2227.174,445.55 2232.374,442.4C2235.454,440.73 2235.934,435.73 2233.454,433.48C2231.514,428.07 2225.824,426.04 2220.714,424.95C2220.354,420.8 2222.284,417.01 2222.894,412.99C2223.184,411.73 2222.804,410.74 2221.774,410.01C2217.694,410.39 2213.984,412.47 2210.594,414.61C2207.654,418 2205.194,421.83 2201.764,424.76C2200.724,425.82 2199.164,425.74 2197.884,426.03C2197.704,424.57 2197.414,422.88 2198.864,421.95C2202.434,418.15 2207.044,414.41 2207.804,408.94C2207.874,405.83 2206.014,400.75 2202.074,402.08C2196.944,403.27 2192.534,406.38 2188.134,409.13M1691.935,410.96C1686.075,416.15 1684.525,425.28 1687.715,432.31C1689.645,436.83 1694.155,439.51 1698.405,441.55C1709.165,445.7 1720.975,446.17 1732.355,445.07C1732.265,442.97 1732.845,440.51 1731.195,438.86C1728.225,434.93 1724.625,430.5 1725.315,425.25C1725.915,421.79 1729.805,420.32 1732.955,420.54C1737.435,420.31 1742.135,422.62 1746.425,420.51C1750.815,418.64 1755.535,417.81 1760.185,416.8C1750.545,408.54 1737.525,405.64 1725.235,403.97C1727.205,406.84 1730.165,410.04 1728.905,413.83C1727.335,418.96 1720.335,423.14 1715.545,419.57C1712.705,417.65 1710.675,414.73 1709.265,411.66C1707.925,409.15 1709.285,406.43 1709.865,403.92C1703.555,405.06 1696.775,406.46 1691.935,410.96M1712.295,408C1713.055,411.32 1715.055,414.25 1717.805,416.25C1719.595,418.05 1722.235,416.1 1723.745,414.78C1726.635,411.62 1723.485,407.18 1720.325,405.69C1717.425,404.26 1714.415,406.09 1712.295,408M2276.264,411.52C2275.334,420.06 2269.524,426.95 2262.974,432.02C2255.984,437.73 2247.404,441.33 2238.494,442.59C2235.804,444.42 2233.334,446.52 2230.774,448.5C2242.514,450 2254.434,451.2 2266.234,449.57C2271.454,448.75 2277.134,448.69 2281.834,446.01C2292.144,443.6 2302.084,438.04 2308.704,429.63C2310.824,426.42 2313.404,421.28 2309.934,418.09C2306.044,414.81 2300.944,412.91 2295.874,412.86L2295.674,412.24C2289.244,411.25 2282.734,411.19 2276.264,411.52M1759.334,421.23C1752.154,422.4 1744.224,424.61 1739.814,430.86C1734.614,437.66 1735.074,448.57 1741.804,454.24C1749.824,461.08 1760.894,462.16 1771.014,462.59C1784.364,462.58 1798.314,460.94 1810.044,454.07C1813.784,451.79 1817.374,447.82 1816.774,443.1C1816.224,438.91 1813.074,435.65 1809.994,433.04C1804.734,429.17 1798.734,426.3 1792.454,424.54C1781.785,421.26 1770.435,419.63 1759.334,421.23M1729.604,424.88C1728.774,428.59 1730.854,431.91 1733.034,434.7C1734.774,431.38 1736.644,428.13 1738.854,425.1C1735.775,424.78 1732.675,424.64 1729.604,424.88M1821.194,442.6C1820.524,445.87 1820.184,449.4 1818.164,452.18C1816.364,454.4 1813.994,456.05 1811.934,458C1815.934,458.31 1820.154,457.88 1823.564,455.56C1825.644,454.21 1828.074,451.89 1827.254,449.15C1826.125,446.34 1824.074,443.72 1821.194,442.6M1717.935,484.25C1731.575,489.93 1745.625,494.56 1759.555,499.47C1777.405,505.27 1795.315,510.97 1813.615,515.19C1838.505,521.79 1864.325,523.36 1889.945,524.59C1942.265,526.43 1994.635,527.32 2047.005,527.13C2068.925,526.72 2090.885,527.01 2112.765,525.5C2125.335,524.82 2137.475,521.25 2149.745,518.72C2164.875,514.83 2179.905,510.53 2194.785,505.78C2209.765,500.63 2224.885,495.64 2239.025,488.42C2225.025,490.34 2210.965,491.74 2196.915,493.18C2167.775,496.07 2138.485,496.85 2109.265,498.53C2084.015,502.18 2058.435,501.62 2032.995,501.69C1975.435,501.74 1917.955,498.1 1860.485,495.3C1836.155,493.75 1811.825,492.05 1787.515,490.21C1764.265,488.92 1741.104,486.41 1717.935,484.25z" stroke-width="0.5" stroke="#000000"/>
   <path id="imagebot_150" d="M2120.654,29.65C2122.824,25.65 2127.694,24.08 2132.004,24.21C2137.184,24.38 2142.664,25.81 2146.434,29.58C2152.644,34.88 2154.084,45.26 2148.634,51.6C2145.234,55.94 2139.674,57.23 2134.814,59.16C2135.074,60.27 2135.444,61.36 2135.904,62.43C2139.004,63.73 2142.424,64.47 2145.804,63.88C2150.514,63.18 2154.364,60.11 2158.144,57.43C2159.804,58.75 2162.624,60.37 2161.464,62.94C2158.844,69.07 2153.934,74.9 2147.034,76.05C2141.624,77.32 2136.354,75.1 2131.054,74.69C2125.924,76.91 2123.704,82.48 2120.554,86.7C2119.344,87.08 2118.144,87.37 2116.934,87.58C2115.944,85.1 2114.504,82.77 2113.924,80.16C2115.394,75.91 2117.554,71.88 2118.394,67.42C2119.474,62.28 2117.654,57.17 2117.394,52.04C2116.875,44.52 2116.654,36.36 2120.654,29.65z" stroke-width="0.5" stroke="#DDDDDD" fill="#DDDDDD"/>
   <path id="imagebot_151" d="M2135.904,62.43C2141.514,61.6 2146.734,59.14 2150.944,55.33C2153.354,55.9 2155.774,56.58 2158.144,57.43C2154.364,60.11 2150.514,63.18 2145.804,63.88C2142.424,64.47 2139.004,63.73 2135.904,62.43z" stroke-width="0.5" stroke="#C7C7C7" fill="#C7C7C7"/>
   <path id="imagebot_152" d="M2201.804,70.87C2205.274,64.14 2212.734,60.23 2219.974,58.96C2230.304,57.49 2239.574,67.05 2239.864,77.04C2240.224,80.45 2238.244,83.41 2237.034,86.43C2234.964,89.24 2231.734,90.76 2228.854,92.56C2235.474,96.91 2245.034,89.92 2243.864,82.4C2243.794,80.8 2244.134,79.24 2244.444,77.68C2249.864,77.23 2256.104,76.72 2260.624,80.37C2265.964,85.52 2265.404,95.05 2259.944,99.95C2251.724,107.33 2240.514,109.71 2229.964,111.57C2226.154,112.5 2221.514,111.46 2218.554,114.55C2213.004,119.96 2209.014,126.66 2205.134,133.3C2204.414,135.05 2202.324,134.36 2200.944,134.55C2199.744,131.49 2197.754,128.62 2197.334,125.33C2202.324,118.57 2208.754,112.22 2210.664,103.75C2211.004,98.01 2206.644,93.51 2204.304,88.62C2201.714,83.22 2198.794,76.71 2201.804,70.87z" stroke-width="0.5" stroke="#DDDDDD" fill="#DDDDDD"/>
   <path id="imagebot_153" d="M2101.734,87.79C2103.714,85.1 2105.134,81.96 2107.634,79.66C2109.384,82.09 2111.574,84.37 2112.514,87.29C2112.584,89.16 2112.024,90.99 2111.844,92.84C2106.974,96.51 2103.944,101.9 2101.084,107.15C2098.554,111.61 2095.724,115.89 2092.954,120.2C2088.924,118.23 2084.954,116.17 2080.964,114.15C2087.964,105.42 2095.115,96.81 2101.734,87.79z" stroke-width="0.5" stroke="#E8A452" fill="#E8A452"/>
   <path id="imagebot_154" d="M2237.034,86.43C2240.354,88.08 2242.254,84.72 2243.864,82.4C2245.034,89.92 2235.474,96.91 2228.854,92.56C2231.734,90.76 2234.964,89.24 2237.034,86.43z" stroke-width="0.5" stroke="#C7C7C7" fill="#C7C7C7"/>
   <path id="imagebot_155" d="M2111.844,92.84C2115.094,92.05 2118.374,91.01 2121.774,91.03C2123.774,92.03 2121.884,93.94 2121.354,95.31C2115.004,105.66 2105.584,114.03 2100.714,125.31C2098.014,123.77 2095.494,121.96 2092.954,120.2C2095.724,115.89 2098.554,111.61 2101.084,107.15C2103.944,101.9 2106.974,96.51 2111.844,92.84z" stroke-width="0.5" stroke="#D0934A" fill="#D0934A"/>
   <path id="imagebot_156" d="M1986.425,124.43C2006.425,112.98 2030.155,107.97 2053.045,111.09C2069.405,113.4 2085.645,119 2098.795,129.22C2104.795,133.55 2108.125,140.51 2114.035,144.96C2124.205,153.18 2136.545,158.5 2149.145,161.75C2147.285,164.12 2144.545,165.5 2142.045,167.05C2132.265,173.01 2121.785,177.99 2110.615,180.71C2101.665,183.38 2092.245,183.32 2083.125,185.04C2062.645,189.62 2043.055,199.23 2027.865,213.85C2014.865,226.02 2005.555,242.35 2003.005,260.07C2000.385,278.99 2006.085,298.18 2015.655,314.4C2021.305,322 2028.505,328.41 2036.345,333.71C2050.945,343.64 2069.345,347.89 2086.805,344.95C2125.935,338.68 2157.345,302.37 2159.295,263C2160.285,233.27 2168.385,203.58 2183.835,178.1C2197.365,186.93 2210.175,197.01 2221.115,208.94C2226.885,215.44 2232.235,222.59 2235.205,230.85C2238.175,238.52 2239.405,246.74 2239.705,254.94C2240.225,268.26 2239.505,281.7 2236.815,294.78C2235.875,298.37 2235.775,302.37 2233.855,305.59C2229.085,310.46 2226.275,316.77 2222.075,322.06C2215.785,330.21 2210.755,339.26 2204.105,347.12C2190.735,363.57 2179.715,382.8 2161.355,394.33C2157.355,396.93 2152.415,395.93 2147.955,396.02C2143.475,395.84 2139.245,397.45 2135.085,398.84C2134.785,393.38 2136.785,386.23 2131.445,382.56C2124.435,377.76 2115.365,376.56 2107.065,377.03C2102.165,377.24 2100.935,382.67 2098.925,386.16C2094.985,381.44 2091.185,376.18 2085.385,373.63C2077.785,370.28 2069.245,369.44 2061.025,370.04C2056.485,370.54 2051.285,371.53 2048.485,375.52C2044.945,380.94 2046.755,388.06 2043.615,393.63C2041.195,397.02 2037.105,398.5 2033.875,400.92C2028.595,404.24 2028.935,412.33 2022.965,414.88C2016.335,417.72 2008.595,418.11 2002.835,422.83C1997.985,426.84 1994.905,432.52 1992.055,438.02C1989.135,443.66 1989.345,450.22 1990.695,456.26C1977.325,457.13 1963.895,455.36 1950.835,452.65C1967.885,441.53 1984.625,429.89 2001.565,418.57C2009.585,413.01 2017.745,407.54 2024.995,400.97C2028.175,397.73 2031.775,394.31 2032.555,389.61C2033.475,385.19 2031.655,380.6 2028.555,377.46C2026.565,375.52 2024.885,372.64 2021.855,372.43C2011.765,370.87 2001.565,372.03 1991.455,372.63C1979.525,373.92 1967.695,376 1955.885,378.07C1944.255,379.62 1933.005,383.17 1921.345,384.45C1909.195,388.08 1899.125,396.48 1890.585,405.59C1888.925,407.79 1885.935,407.66 1883.595,408.6C1876.025,411.04 1869.955,416.68 1865.955,423.44C1865.135,423.08 1864.425,422.61 1863.835,422.04C1861.145,417.72 1856.375,415.56 1852.575,412.43C1847.555,408.41 1842.455,404.5 1837.195,400.82C1829.295,395.37 1824.085,387.14 1818.405,379.61C1804.765,361 1795.205,339.29 1791.585,316.46C1790.105,306.92 1792.565,297.37 1791.915,287.81C1798.965,283.68 1806.855,281.15 1813.805,276.8C1829.565,267.03 1843.435,254.58 1857.065,242.1C1887.715,213.75 1916.745,183.7 1947.465,155.42C1959.645,144.15 1971.724,132.41 1986.425,124.43z" stroke-width="0.5" stroke="#E8A452" fill="#E8A452"/>
   <path id="imagebot_157" d="M2213.834,127.04C2216.004,123.27 2218.554,119.59 2222.104,116.97C2219.794,120.66 2216.914,123.99 2213.834,127.04z" stroke-width="0.5" stroke="#ADAAA3" fill="#ADAAA3"/>
   <path id="imagebot_158" d="M2191.474,126.39C2191.764,126.38 2192.344,126.36 2192.634,126.35C2194.094,128.78 2195.334,131.35 2196.364,134C2195.534,135.74 2193.184,136.08 2191.724,137.16C2191.864,137.95 2192.164,139.53 2192.304,140.32C2191.794,143.58 2188.644,145.35 2186.614,147.62C2176.414,158.01 2167.624,169.79 2160.394,182.42C2154.254,194.2 2150.544,207.04 2145.214,219.18C2139.334,232.8 2136.734,247.53 2131.194,261.27C2123.504,279.71 2110.984,295.89 2096.084,309.08C2086.174,317.44 2075.584,325.2 2063.854,330.81C2059.184,332.87 2054.264,334.28 2049.604,336.35C2039.624,332.15 2030.914,325.35 2023.524,317.51C2018.384,312.5 2015.334,305.86 2012.694,299.31C2004.694,280.77 2004.094,258.54 2013.284,240.32C2020.694,224.69 2033.624,212.25 2048.214,203.25C2059.504,196.53 2071.844,191.33 2084.824,188.96C2091.714,187.37 2098.854,187.37 2105.774,185.89C2125.934,182.2 2144.244,171.82 2160.114,159.15C2171.794,149.52 2182.604,138.7 2191.474,126.39z" stroke-width="0.5" stroke="#E8A452" fill="#E8A452"/>
   <path id="imagebot_159" d="M2113.384,138.27C2113.474,138.36 2113.654,138.54 2113.744,138.63C2113.654,138.54 2113.474,138.36 2113.384,138.27z" stroke-width="0.5" stroke="#8E6432" fill="#8E6432" opacity="0.75"/>
   <path id="imagebot_160" d="M2192.304,140.32C2198.994,137.62 2206.694,137.61 2213.094,141.14C2204.334,144.69 2197.704,151.66 2191.904,158.9C2173.764,181.96 2162.474,209.96 2157.494,238.77C2155.974,247.08 2155.714,255.55 2155.284,263.97C2152.754,299.44 2125.694,331.98 2090.934,340.09C2077.234,343.52 2062.484,342.08 2049.604,336.35C2054.264,334.28 2059.184,332.87 2063.854,330.81C2075.584,325.2 2086.174,317.44 2096.084,309.08C2110.984,295.89 2123.504,279.71 2131.194,261.27C2136.734,247.53 2139.334,232.8 2145.214,219.18C2150.544,207.04 2154.254,194.2 2160.394,182.42C2167.624,169.79 2176.414,158.01 2186.614,147.62C2188.644,145.35 2191.794,143.58 2192.304,140.32z" stroke-width="0.5" stroke="#D0934A" fill="#D0934A"/>
   <path id="imagebot_161" d="M1765.545,303.57C1773.765,297.45 1782.575,292.07 1791.915,287.81C1792.565,297.37 1790.105,306.92 1791.585,316.46C1795.205,339.29 1804.765,361 1818.405,379.61C1824.085,387.14 1829.295,395.37 1837.195,400.82C1842.455,404.5 1847.555,408.41 1852.575,412.43C1856.375,415.56 1861.145,417.72 1863.835,422.04C1855.695,420.46 1848.295,416.48 1840.735,413.26C1822.795,404.73 1805.945,393.97 1790.405,381.62C1776.685,370.46 1763.355,358.47 1752.995,344.04C1748.845,338.67 1747.035,331.48 1748.965,324.88C1751.615,315.99 1758.395,309.13 1765.545,303.57z" stroke-width="0.5" stroke="#D0934A" fill="#D0934A"/>
   <path id="imagebot_162" d="M2240.984,302.97C2244.274,301.22 2247.854,299.33 2251.704,299.44C2254.104,300.55 2253.784,303.77 2253.834,305.99C2253.404,311.12 2252.054,316.6 2248.454,320.46C2246.414,322.75 2243.164,322.52 2240.404,322.72C2240.264,323.96 2240.254,325.2 2240.384,326.45C2245.734,327.97 2250.564,323.33 2255.854,325.23C2256.894,325.51 2257.944,325.82 2259.024,326.16C2258.444,328.58 2256.934,330.54 2254.934,331.95C2251.794,334.22 2250.054,337.76 2247.474,340.53C2242.874,343.13 2235.734,344.87 2235.014,351C2237.864,352.04 2239.884,349.43 2242.044,348.05C2244.564,346.24 2247.554,344.22 2250.844,344.9C2253.294,346.23 2254.774,349.39 2257.984,349.02C2258.654,345.14 2255.224,342.84 2252.594,340.79C2254.764,336.51 2259.344,334.51 2263.224,332.09C2267.344,330.73 2271.834,331.97 2275.714,333.64C2274.864,337.93 2275.684,342.27 2275.484,346.58C2274.254,352.35 2268.414,354.94 2264.284,358.37C2263.014,359.22 2262.854,360.82 2262.474,362.16L2262.304,362.81C2261.014,362.72 2259.744,362.64 2258.524,362.57C2256.334,359.89 2254.434,356.44 2251.014,355.25C2248.684,355.05 2248.294,357.86 2250.064,358.96C2254.244,362.17 2255.284,368.05 2253.184,372.76C2254.064,373.13 2254.984,373.5 2255.934,373.88C2257.324,371.75 2258.464,369.46 2259.374,367.09C2262.364,366.52 2265.394,366.08 2268.454,365.8C2268.344,371.1 2264.264,375.9 2259.194,377.22C2252.354,378.99 2245.124,377.83 2238.584,375.46C2229.674,372.48 2220.244,372.34 2210.974,371.91C2222.844,352.59 2231.964,331.58 2237.604,309.6C2238.394,307.27 2238.375,304.11 2240.984,302.97z" stroke-width="0.5" stroke="#31B52A" fill="#31B52A"/>
   <path id="imagebot_163" d="M2222.074,322.06C2226.274,316.77 2229.084,310.46 2233.854,305.59C2233.164,314.34 2229.334,322.4 2226.734,330.68C2216.804,356.94 2202.234,382.18 2180.844,400.77C2175.754,399.37 2170.134,398.95 2165.264,401.27C2162.004,402.61 2160.744,406.15 2158.994,408.92C2156.554,406.64 2154.104,404.02 2150.704,403.31C2145.514,401.93 2140.394,404.29 2135.944,406.74C2132.484,404.37 2128.344,403.52 2124.214,403.59C2126.104,397.6 2128.154,390.67 2125.364,384.66C2122.184,379.22 2114.644,379.99 2110.034,383.01C2105.364,385.71 2103.164,390.92 2101.934,395.92C2098.314,395.47 2094.684,395.57 2091.084,395.93C2090.784,391.32 2090.344,386.39 2087.464,382.57C2082.454,375.2 2072.404,373.29 2064.164,375.14C2058.744,376.4 2052.714,379 2050.704,384.64C2048.394,391.17 2050.064,398.21 2052.094,404.58C2047.874,404.09 2043.194,403.85 2039.674,406.65C2035.874,409.3 2035.974,414.42 2035.864,418.56C2029.034,417.56 2020.694,418.3 2016.224,424.24C2013.754,427.13 2014.474,431.1 2014.764,434.57C2004.314,435.31 1996.234,445.44 1996.484,455.61C1994.534,455.8 1992.594,456.02 1990.694,456.26C1989.344,450.22 1989.134,443.66 1992.054,438.02C1994.904,432.52 1997.984,426.84 2002.834,422.83C2008.594,418.11 2016.334,417.72 2022.964,414.88C2028.934,412.33 2028.594,404.24 2033.874,400.92C2037.104,398.5 2041.194,397.02 2043.614,393.63C2046.754,388.06 2044.944,380.94 2048.484,375.52C2051.284,371.53 2056.484,370.54 2061.024,370.04C2069.244,369.44 2077.784,370.28 2085.384,373.63C2091.184,376.18 2094.984,381.44 2098.924,386.16C2100.934,382.67 2102.164,377.24 2107.064,377.03C2115.364,376.56 2124.434,377.76 2131.444,382.56C2136.784,386.23 2134.784,393.38 2135.084,398.84C2139.244,397.45 2143.474,395.84 2147.954,396.02C2152.414,395.93 2157.354,396.93 2161.354,394.33C2179.714,382.8 2190.734,363.57 2204.104,347.12C2210.754,339.26 2215.784,330.21 2222.074,322.06z" stroke-width="0.5" stroke="#D0934A" fill="#D0934A"/>
   <path id="imagebot_164" d="M2275.714,333.64C2279.484,335.46 2283.834,337.59 2285.284,341.86C2286.554,345.8 2283.914,349.63 2281.414,352.44C2276.404,357.6 2269.784,361.64 2262.474,362.16C2262.854,360.82 2263.014,359.22 2264.284,358.37C2268.414,354.94 2274.254,352.35 2275.484,346.58C2275.684,342.27 2274.865,337.93 2275.714,333.64z" stroke-width="0.5" stroke="#2CA426" fill="#2CA426"/>
   <path id="imagebot_165" d="M1709.785,343.79C1716.855,336.76 1727.585,332.37 1737.475,335.51C1740.875,336.68 1744.785,337.97 1746.645,341.32C1751.375,349.89 1758.055,357.18 1764.875,364.13C1790.335,389.64 1820.825,410.38 1854.445,423.51C1857.945,424.86 1861.545,425.91 1865.105,427.13C1865.455,431.34 1865.575,435.71 1867.345,439.64C1868.315,442.14 1869.915,444.39 1870.585,447.01C1870.445,449.57 1869.535,452.19 1867.805,454.11C1863.455,455.44 1859.765,451.77 1856.565,449.39C1852.455,446.54 1851.555,441.06 1847.655,438.06C1846.415,436.75 1844.995,438.62 1843.895,439.1C1845.475,441.96 1849.135,444.23 1848.375,447.89C1846.595,450.28 1844.065,452 1841.635,453.65C1839.605,455 1836.315,455.47 1834.625,453.39C1832.665,451.03 1832.225,447.87 1830.675,445.3C1829.145,443.49 1827.305,441.99 1825.495,440.51C1822.905,438.32 1819.225,437.65 1817.265,434.72C1812.955,429.09 1806.505,425.85 1800.225,422.95C1801.805,419.55 1803.525,415.92 1802.805,412.06C1802.035,405.21 1796.305,400.29 1790.415,397.52C1781.515,393.61 1771.615,392.69 1761.985,393.1C1750.825,393.21 1739.055,393.43 1728.995,398.91C1726.245,400.57 1722.965,399.73 1719.965,399.73C1714.055,399.35 1708.155,400.18 1702.375,401.31C1699.965,397.8 1696.935,394.6 1695.435,390.57C1694.315,387.02 1696.275,383.58 1697.945,380.58C1700.205,383.51 1701.995,386.79 1704.345,389.68C1705.835,391.54 1708.405,391.71 1710.545,392.41C1709.675,389.75 1708.795,387.11 1707.975,384.45C1707.435,381.28 1704.335,377.84 1706.765,374.8C1707.765,373.2 1709.435,372.23 1710.945,371.15C1716.875,373.87 1724.275,376.36 1730.115,372C1730.035,371.21 1729.885,369.62 1729.805,368.83C1726.245,369.06 1722.745,371.18 1719.195,369.89C1713.845,368.28 1708.625,364.95 1706.185,359.77C1703.665,354.38 1705.625,347.79 1709.785,343.79z" stroke-width="0.5" stroke="#31B52A" fill="#31B52A"/>
   <path id="imagebot_166" d="M1673.375,380.46C1676.115,376.39 1681.505,375.68 1686.035,375.49C1690.715,375.46 1695.565,375.45 1700.075,376.9C1702.025,378.76 1701.835,382.28 1704.325,383.81C1705.465,384.28 1706.735,384.3 1707.975,384.45C1708.795,387.11 1709.675,389.75 1710.545,392.41C1708.405,391.71 1705.835,391.54 1704.345,389.68C1701.995,386.79 1700.205,383.51 1697.945,380.58C1696.275,383.58 1694.315,387.02 1695.435,390.57C1696.935,394.6 1699.965,397.8 1702.375,401.31C1700.795,401.98 1699.115,402.28 1697.535,401.52C1693.835,400.01 1689.735,401.24 1685.975,400.07C1681.315,398.68 1676.635,396.22 1674.005,391.98C1671.765,388.63 1671.545,384.03 1673.375,380.46z" stroke-width="0.5" stroke="#2CA326" fill="#2CA326"/>
   <path id="imagebot_167" d="M1936.734,385.77C1961.254,381.01 1985.944,376.14 2010.994,375.59C2015.684,375.89 2021.564,374.99 2024.844,379.19C2027.354,382.18 2030.144,386.29 2028.184,390.29C2024.884,396.97 2018.434,401.25 2012.764,405.76C1995.854,417.99 1978.234,429.18 1961.124,441.12C1950.624,448.12 1939.554,454.57 1927.424,458.3C1921.464,455.51 1915.014,453.44 1909.964,449.07C1898.424,439.61 1891.484,425.86 1886.834,411.95C1889.024,411.33 1891.454,410.85 1892.994,408.97C1899.954,401.49 1907.754,394.48 1917.154,390.24C1923.324,387.41 1930.265,387.61 1936.734,385.77z" stroke-width="0.5" stroke="#E8A452" fill="#E8A452"/>
   <path id="imagebot_168" d="M2208.194,375.89C2214.344,375.83 2220.514,376.33 2226.614,377.23C2231.204,377.88 2235.914,378.35 2240.254,380.17C2238.564,380.45 2236.914,380.8 2235.284,381.14C2238.234,385.28 2241.684,389.5 2242.244,394.75C2242.584,398.6 2242.054,402.47 2241.804,406.31C2238.124,410.95 2232.524,413.73 2227.174,416.08C2226.954,412.92 2227.774,408.47 2224.294,406.79C2220.194,405.01 2215.914,407.38 2212.104,408.82C2211.344,405.41 2210.464,401.71 2207.824,399.24C2205.424,397.31 2202.114,397.74 2199.424,398.65C2194.304,400.34 2189.834,403.42 2185.164,406.01C2184.784,405.09 2184.434,404.16 2184.114,403.25C2193.375,395.3 2201.115,385.78 2208.194,375.89z" stroke-width="0.5" stroke="#E5C56A" fill="#E5C56A"/>
   <path id="imagebot_169" d="M2063.354,379.43C2069.444,377.78 2076.724,377.96 2081.774,382.21C2085.104,384.71 2086.354,389.01 2086.684,392.99C2087.134,398.06 2085.264,402.92 2085.074,407.95C2086.224,407.69 2088.384,408.45 2088.744,406.76C2089.874,404.61 2089.524,401.04 2092.364,400.3C2094.534,399.67 2097.524,398.62 2099.424,400.37C2102.144,405.36 2100.754,411.29 2102.484,416.55C2102.874,418.52 2104.834,417.43 2106.104,417.11C2105.344,408.45 2103.804,399.08 2108.024,391.03C2110.034,386.75 2115.084,383.72 2119.824,384.88C2122.534,385.98 2122.494,389.52 2122.494,391.99C2121.884,398.77 2119.834,405.48 2116.254,411.28C2115.284,413.06 2113.824,414.76 2113.814,416.89C2114.644,417.74 2116.234,418.2 2117.154,417.13C2119.654,414.7 2120.624,411.23 2122.474,408.36C2125.524,406.75 2129.254,407.99 2132.374,409C2127.524,415.03 2122.534,422.03 2122.804,430.12C2123.594,430.17 2125.174,430.27 2125.974,430.32C2127.664,423.26 2130.544,416.04 2136.434,411.43C2140.394,407.96 2146.064,406.14 2151.214,407.76C2154.914,409.24 2156.694,413.1 2158.054,416.59C2154.344,416.38 2150.174,415.52 2147.004,417.98C2142.204,421.34 2141.124,427.57 2140.184,432.94C2139.344,431.95 2138.524,430.96 2137.744,429.97C2131.724,430.6 2125.414,432.65 2121.764,437.79C2118.044,441.93 2117.504,447.7 2117.764,453.01C2101.594,448.26 2085.124,458.14 2068.874,453.91C2071.754,451.53 2075.404,450.51 2079.024,449.82C2079.094,449.09 2079.224,447.61 2079.294,446.88C2077.504,446.45 2075.634,446.11 2073.914,446.87C2065.304,449.81 2058.254,456.19 2049.324,458.37C2047.954,456.78 2046.474,455.3 2045.194,453.67C2045.804,450.95 2047.554,448.67 2048.294,445.99C2048.424,444.38 2046.224,444.66 2045.274,444.09C2042.934,447.62 2041.474,451.62 2040.514,455.73C2032.544,457.24 2024.384,458.29 2016.274,458.08C2014.054,456.31 2011.014,454.76 2010.194,451.9C2010.594,446.23 2016.574,443.66 2021.324,442.3C2022.574,441.87 2023.824,441.4 2025.094,440.91C2024.044,438.94 2022.604,437.23 2020.784,435.96C2021.984,433.62 2022.324,429.96 2025.414,429.35C2030.194,428.22 2034.324,431.6 2038.314,433.7C2038.114,429.67 2036.794,425.84 2034.854,422.34C2037.154,423.45 2039.894,424.62 2040.754,427.3C2042.104,430.88 2040.034,434.46 2039.154,437.9C2040.334,438.32 2041.874,439.29 2042.884,437.93C2046.224,433.23 2045.964,426.28 2042.064,421.96C2038.534,418.14 2038.894,410.09 2044.574,408.56C2051.874,406.21 2060.074,413.27 2058.754,420.82C2058.344,424.16 2054.774,426.44 2055.194,429.92C2056.534,430.7 2058.154,430.43 2059.114,429.14C2062.744,425.44 2063.804,419.66 2062.264,414.78C2060.924,410.76 2057.444,407.88 2056.224,403.8C2054.494,398.24 2052.804,392.17 2054.544,386.4C2055.714,382.52 2059.754,380.55 2063.354,379.43z" stroke-width="0.5" stroke="#31B52A" fill="#31B52A"/>
   <path id="imagebot_170" d="M2240.254,380.17C2244.394,381.33 2248.004,384.82 2248.644,389.19C2249.674,395.57 2246.494,402.12 2241.804,406.31C2242.054,402.47 2242.584,398.6 2242.244,394.75C2241.684,389.5 2238.234,385.28 2235.284,381.14C2236.914,380.8 2238.564,380.45 2240.254,380.17z" stroke-width="0.5" stroke="#CFB25F" fill="#CFB25F"/>
   <path id="imagebot_171" d="M1613.175,397.25C1630.685,390.27 1649.405,386.86 1668.075,384.83C1668.225,386.35 1668.415,387.88 1668.635,389.4C1666.685,391.43 1664.215,392.82 1661.515,393.54C1653.335,395.99 1645.095,398.95 1638.345,404.35C1636.195,406.03 1634.955,408.51 1633.525,410.76C1629.935,413.72 1625.055,415.47 1622.925,419.95C1619.695,425.2 1622.085,431.85 1626.035,435.98C1632.865,443.05 1641.855,447.52 1650.855,451.2C1670.025,459.17 1690.655,462.41 1711.005,465.83C1725.455,467.72 1739.845,470.13 1754.335,471.78C1781.535,474.4 1808.735,477.46 1836.065,478.44C1902.955,482.41 1969.985,482.96 2036.975,483.24C2086.005,485.04 2135.205,484.61 2184.065,479.66C2221.845,476.12 2259.515,469.91 2295.895,458.92C2312.825,453.26 2330.015,447.2 2344.595,436.62C2348.985,433.28 2353.285,429.25 2355.055,423.87C2356.375,419.31 2353.425,414.79 2349.905,412.13C2343.035,406.94 2334.375,405.03 2326.205,402.89C2306.685,399.31 2286.835,397.38 2266.985,397.28C2262.025,398.36 2257.505,395.67 2252.695,395.08C2252.705,393.06 2252.735,391.04 2252.775,389.03C2262.885,389.4 2272.985,390.08 2283.105,390.46C2293.075,390.9 2302.995,392.71 2313.005,392.16C2329.425,392.64 2345.665,396.76 2360.645,403.42C2367.485,406.82 2374.375,410.71 2379.345,416.66C2382.325,420.39 2384.165,425.59 2382.395,430.26C2379.685,437.94 2372.465,442.67 2365.945,446.91C2339.515,462.75 2309.445,470.95 2279.585,477.51C2265.395,479.96 2251.295,483.11 2236.945,484.55C2194.915,490.57 2152.455,492.37 2110.095,494.5C2087.855,497.28 2065.385,497.6 2043.005,497.69C2016.005,497.75 1989.015,496.96 1962.045,496.01C1934.675,495.45 1907.345,493.72 1880.015,492.26C1852.355,490.45 1824.665,489.25 1797.035,486.96C1772.325,484.92 1747.565,483.5 1722.925,480.7C1702.155,478.53 1681.565,474.98 1661.115,470.84C1640.405,465.89 1619.055,460.85 1601.045,448.98C1594.845,444.61 1588.665,438.96 1586.855,431.3C1585.175,424.75 1586.775,417.36 1591.195,412.22C1596.815,405.13 1605.074,400.89 1613.175,397.25z" stroke-width="0.5" stroke="#C6C1C1" fill="#C6C1C1"/>
   <path id="imagebot_172" d="M1668.635,389.4C1669.415,391.47 1670.255,393.52 1671.075,395.59C1662.035,395.81 1652.195,397.98 1645.795,404.82C1642.905,408.67 1637.725,409.11 1633.525,410.76C1634.955,408.51 1636.195,406.03 1638.345,404.35C1645.095,398.95 1653.335,395.99 1661.515,393.54C1664.214,392.82 1666.685,391.43 1668.635,389.4z" stroke-width="0.5" stroke="#B4AFAF" fill="#B4AFAF"/>
   <path id="imagebot_173" d="M1734.275,401.04C1741.655,397.59 1749.985,397.28 1757.995,397.02C1763.355,396.91 1768.745,396.76 1774.075,397.55C1769.695,397.86 1765.225,397.73 1761.005,399.1C1761.325,402.15 1761.585,405.29 1762.895,408.11C1763.995,410.52 1766.145,412.18 1768.045,413.95C1766.865,414.2 1765.725,414.48 1764.605,414.79C1755.984,407.44 1745.104,403.7 1734.275,401.04z" stroke-width="0.5" stroke="#E01203" fill="#E01203"/>
   <path id="imagebot_174" d="M2251.494,399.09C2256.154,399.57 2260.724,401.12 2264.744,403.57C2263.744,409.49 2266.044,415.58 2264.314,421.39C2262.514,425.08 2259.084,427.63 2256.814,431.02C2252.004,435.12 2245.694,437.44 2239.424,438.02C2238.704,431.97 2234.904,426.28 2229.374,423.63C2227.844,422.87 2226.324,422.17 2224.864,421.35C2235.944,417.45 2246.994,410.45 2251.494,399.09z" stroke-width="0.5" stroke="#E5C56A" fill="#E5C56A"/>
   <path id="imagebot_175" d="M1663.365,400.47C1668.165,399.76 1673.545,398.34 1678.005,401.04C1682.585,403.55 1687.735,404.68 1692.915,405.07C1688.435,408.31 1684.215,412.51 1682.895,418.07C1681.735,422.07 1682.745,426.25 1682.245,430.31C1679.865,432.01 1676.985,433.3 1674.015,433.19C1670.315,432.87 1667.385,430.36 1664.945,427.8C1666.915,424.5 1669.965,421.31 1669.735,417.21C1669.815,415.57 1667.835,414.71 1666.575,415.58C1665.165,418.48 1664.675,421.87 1662.335,424.26C1658.555,422.78 1653.785,422.3 1651.345,418.7C1649.525,415.05 1650.005,410.8 1649.815,406.87C1653.025,402.83 1658.525,401.55 1663.365,400.47z" stroke-width="0.5" stroke="#31B52A" fill="#31B52A"/>
   <path id="imagebot_176" d="M1785.045,399.73C1789.415,401.36 1793.985,403.38 1796.685,407.41C1799.845,411.3 1799.905,417.67 1795.845,420.97C1786.725,418.76 1777.485,416.59 1768.055,416.63C1766.495,416.91 1765.535,415.75 1764.605,414.79C1765.725,414.48 1766.865,414.2 1768.045,413.95C1772.465,413.44 1777.125,414.21 1781.355,412.42C1783.985,411.31 1787.055,409.78 1787.915,406.81C1788.635,404.03 1786.295,401.91 1785.045,399.73z" stroke-width="0.5" stroke="#F71403" fill="#F71403"/>
   <path id="imagebot_177" d="M2269.044,401.29C2290.884,401.91 2312.914,403.35 2334.094,409.07C2339.584,411.03 2345.594,412.88 2349.594,417.39C2351.424,419.26 2351.974,422.27 2350.564,424.55C2347.634,429.5 2342.884,433.01 2338.214,436.19C2321.334,446.72 2302.244,452.91 2283.264,458.42C2245.144,468.81 2205.834,473.99 2166.524,477.3C2122.434,480.3 2078.184,480.84 2034.034,478.92C1955.134,478.66 1876.064,478.47 1797.424,471.67C1803.664,467.34 1811.994,467.55 1817.754,462.36C1818.054,462.15 1818.644,461.73 1818.944,461.52C1818.834,462.39 1818.754,463.26 1818.684,464.13C1829.274,463.69 1839.744,462.06 1850.154,460.15C1855.514,458.89 1860.414,461.66 1865.044,463.94C1870.954,466.92 1877.704,465.51 1884.044,465.92C1889.874,466.18 1895.184,468.83 1900.784,470.24C1908.974,472.52 1917.584,472.61 1926.034,472.22C1935.894,471.8 1945.114,467.58 1954.964,467.05C1966.494,466.1 1977.774,469.61 1989.284,469.6C1997.054,469.96 2004.604,467.88 2012.124,466.22C2022.284,463.95 2032.714,465.51 2043.014,465.3C2054.394,465.17 2066.034,464.75 2076.904,461.02C2078.964,460.35 2081.044,459.68 2083.164,459.09C2091.664,457.18 2100.354,456.11 2109.054,455.53C2112.184,455.08 2115.044,456.67 2117.834,457.9C2115.094,463.79 2116.394,472.21 2122.684,475.22C2129.164,477.25 2135.654,473.43 2140.814,469.83C2142.904,468.57 2144.764,465.78 2147.524,466.51C2151.084,468.83 2152.754,473.84 2157.214,474.79C2161.664,474.87 2163.044,469.76 2164.844,466.6C2171.924,468.5 2179.964,471.52 2187.004,467.97C2190.544,466.4 2191.394,462.4 2193.594,459.59C2196.934,458.71 2200.574,460.05 2203.954,458.87C2207.734,458.09 2209.874,454.43 2211.464,451.23C2215.934,451.16 2220.494,450.13 2224.924,451.25C2244.264,455.56 2264.904,456.14 2283.914,449.93C2290.464,448.12 2296.534,444.92 2302.204,441.21C2308.114,436.84 2314.054,431.26 2315.644,423.78C2316.654,419.29 2313.704,415.11 2309.854,413.12C2299.564,406.65 2286.994,407.34 2275.364,407.52C2272.854,406.01 2271.254,403.23 2269.044,401.29z" stroke-width="0.5" stroke="#C6C1C1" fill="#C6C1C1"/>
   <path id="imagebot_178" d="M1765.464,402.01C1770.494,401.89 1775.704,401.13 1780.654,402.48C1782.434,402.87 1783.294,404.58 1784.254,405.96C1780.704,409.03 1775.734,409.96 1771.174,409.78C1767.375,409.44 1765.474,405.42 1765.464,402.01z" stroke-width="0.5" stroke="#FC8B82" fill="#FC8B82"/>
   <path id="imagebot_179" d="M2188.134,409.13C2192.534,406.38 2196.944,403.27 2202.074,402.08C2206.014,400.75 2207.874,405.83 2207.804,408.94C2207.044,414.41 2202.434,418.15 2198.864,421.95C2197.414,422.88 2197.704,424.57 2197.884,426.03C2199.164,425.74 2200.724,425.82 2201.764,424.76C2205.194,421.83 2207.654,418 2210.594,414.61C2213.984,412.47 2217.694,410.39 2221.774,410.01C2222.804,410.74 2223.184,411.73 2222.894,412.99C2222.284,417.01 2220.354,420.8 2220.714,424.95C2225.824,426.04 2231.514,428.07 2233.454,433.48C2230.404,432.21 2227.404,430.78 2224.214,429.94C2221.074,433.84 2220.104,440.09 2214.614,441.6C2206.474,443.71 2198.914,438.66 2190.954,437.94C2193.124,441.84 2196.324,444.98 2199.344,448.23C2194.904,452.83 2188.244,450.27 2182.684,450.39C2181.534,453.23 2180.674,456.29 2178.734,458.72C2176.024,461.74 2171.874,462.82 2168.004,463.34C2167.454,463.27 2166.344,463.13 2165.784,463.06C2165.824,459.42 2166.714,455.7 2169.864,453.49C2168.964,450.87 2165.114,450.32 2163.924,453C2161.114,458.75 2162.564,466.36 2157.374,471C2153.934,467.53 2150.774,461.53 2145.044,462.59C2139.664,464.67 2135.734,469.41 2130.174,471.17C2127.354,472.22 2123.254,472.45 2121.724,469.31C2120.134,466.05 2119.644,461.24 2122.844,458.76C2126.204,455.69 2131.114,456.08 2135.014,454.08C2134.764,453.56 2134.244,452.53 2133.994,452.02C2131.724,451.24 2129.404,450.61 2127.304,449.51C2125.644,447.84 2127.604,445.99 2128.814,444.79C2132.634,441.37 2137.004,438.34 2142.014,437C2141.834,439.3 2141.434,441.58 2141.354,443.89C2141.734,445.59 2143.394,444.96 2144.684,444.9C2145.224,442.96 2145.994,441.04 2146.104,439.01C2145.934,436.16 2144.024,433.56 2144.574,430.65C2145.184,427.19 2146.414,423.49 2149.284,421.24C2151.694,419.38 2154.944,420.13 2157.544,421.19C2157.524,424.16 2157.734,427.13 2158.124,430.09C2159.324,430.09 2160.544,430.1 2161.794,430.1C2161.924,423.43 2161.034,416.55 2163.084,410.09C2164.124,406.6 2167.244,403.83 2170.984,403.71C2174.684,403.28 2179.904,403.47 2181.454,407.62C2182.334,411.14 2180.424,414.61 2179.854,418.05C2180.784,418.34 2181.764,418.59 2182.774,418.79C2185.674,416.23 2184.625,411.17 2188.134,409.13z" stroke-width="0.5" stroke="#31B52A" fill="#31B52A"/>
   <path id="imagebot_180" d="M1691.935,410.96C1696.775,406.46 1703.555,405.06 1709.865,403.92C1709.285,406.43 1707.925,409.15 1709.265,411.66C1710.675,414.73 1712.705,417.65 1715.545,419.57C1720.335,423.14 1727.335,418.96 1728.905,413.83C1730.165,410.04 1727.205,406.84 1725.235,403.97C1737.525,405.64 1750.545,408.54 1760.185,416.8C1755.535,417.81 1750.815,418.64 1746.425,420.51C1742.135,422.62 1737.435,420.31 1732.955,420.54C1729.805,420.32 1725.915,421.79 1725.315,425.25C1724.625,430.5 1728.225,434.93 1731.195,438.86C1732.845,440.51 1732.265,442.97 1732.355,445.07C1720.975,446.17 1709.165,445.7 1698.405,441.55C1694.155,439.51 1689.645,436.83 1687.715,432.31C1684.525,425.28 1686.074,416.15 1691.935,410.96M1700.365,417.39C1697.995,417.89 1695.395,417.99 1693.365,419.39C1691.215,421.6 1691.015,425.04 1692.015,427.83C1693.835,433.13 1697.665,437.73 1702.605,440.41C1706.395,442.42 1711.065,440.81 1713.975,437.96C1718.255,434.32 1719.635,427.74 1717.325,422.67C1713.865,417.03 1706.305,416.21 1700.365,417.39z" stroke-width="0.5" stroke="#F71403" fill="#F71403"/>
   <path id="imagebot_181" d="M2264.744,403.57C2268.244,406.07 2273.234,409.56 2271.524,414.58C2269.044,421.64 2263.434,427.65 2256.814,431.02C2259.084,427.63 2262.514,425.08 2264.314,421.39C2266.044,415.58 2263.744,409.49 2264.744,403.57z" stroke-width="0.5" stroke="#CFB260" fill="#CFB260"/>
   <path id="imagebot_182" d="M1712.295,408C1714.415,406.09 1717.425,404.26 1720.325,405.69C1723.485,407.18 1726.635,411.62 1723.745,414.78C1722.235,416.1 1719.595,418.05 1717.805,416.25C1715.055,414.25 1713.055,411.32 1712.295,408z" stroke-width="0.5" stroke="#FB8B82" fill="#FB8B82"/>
   <path id="imagebot_183" d="M1644.615,418C1644.855,413.88 1646.075,409.17 1649.815,406.87C1650.005,410.8 1649.525,415.05 1651.345,418.7C1653.785,422.3 1658.555,422.78 1662.335,424.26C1658.775,427.28 1653.905,429.69 1649.205,428.03C1645.444,426.34 1644.425,421.74 1644.615,418z" stroke-width="0.5" stroke="#2CA426" fill="#2CA426"/>
   <path id="imagebot_184" d="M2276.264,411.52C2282.734,411.19 2289.244,411.25 2295.674,412.24L2295.874,412.86C2297.734,418.86 2300.384,425.49 2297.704,431.67C2294.794,438.67 2286.884,440.97 2281.834,446.01C2277.134,448.69 2271.454,448.75 2266.234,449.57C2254.434,451.2 2242.514,450 2230.774,448.5C2233.334,446.52 2235.804,444.42 2238.494,442.59C2247.404,441.33 2255.984,437.73 2262.974,432.02C2269.524,426.95 2275.334,420.06 2276.264,411.52z" stroke-width="0.5" stroke="#E5C56A" fill="#E5C56A"/>
   <path id="imagebot_185" d="M1869.964,425.96C1872.404,418.57 1879.594,413.85 1886.834,411.95C1891.484,425.86 1898.424,439.61 1909.964,449.07C1915.014,453.44 1921.464,455.51 1927.424,458.3C1917.274,461.99 1905.964,462.83 1895.434,460.38C1885.124,457.55 1876.254,449.89 1871.914,440.13C1870.094,435.71 1868.185,430.7 1869.964,425.96z" stroke-width="0.5" stroke="#D0934A" fill="#D0934A"/>
   <path id="imagebot_186" d="M1630.265,417.77C1633.515,415.5 1637.095,413.7 1640.955,412.68C1640.645,418.59 1639.745,425.86 1644.875,430.1C1649.785,434.2 1656.535,432.33 1661.845,430.11C1664.895,433.29 1668.295,436.82 1672.985,437.17C1676.845,437.77 1680.515,436.19 1683.805,434.32C1687.385,439.84 1692.735,443.97 1698.995,446.05C1709.985,450.27 1722.005,449.62 1733.555,449.18C1735.735,454.98 1740.555,459.45 1746.235,461.78C1757.665,467.24 1770.655,466.89 1783.005,466.24C1790.945,465.7 1798.535,463.23 1806.055,460.83C1809.945,461.4 1813.815,462.05 1817.755,462.36C1811.995,467.55 1803.665,467.34 1797.425,471.67C1791.965,472.08 1786.425,470.7 1780.945,470.45C1769.905,469.38 1758.895,468.13 1747.905,466.77L1747.565,466.43C1744.895,463.39 1740.765,462.54 1737.305,460.77C1726.785,455.66 1715.275,452.99 1703.735,451.5C1695.925,450.49 1687.785,450.69 1680.405,447.6C1672.435,444.4 1665.295,438.86 1656.615,437.65C1651.255,436.85 1645.405,437.44 1640.605,434.48C1634.714,430.92 1631.395,424.39 1630.265,417.77z" stroke-width="0.5" stroke="#B3AEAE" fill="#B3AEAE"/>
   <path id="imagebot_187" d="M2295.875,412.86C2300.945,412.91 2306.045,414.81 2309.935,418.09C2313.405,421.28 2310.825,426.42 2308.705,429.63C2302.085,438.04 2292.145,443.6 2281.835,446.01C2286.885,440.97 2294.795,438.67 2297.705,431.67C2300.384,425.49 2297.734,418.86 2295.875,412.86z" stroke-width="0.5" stroke="#CFB25F" fill="#CFB25F"/>
   <path id="imagebot_188" d="M1700.365,417.39C1706.305,416.21 1713.865,417.03 1717.325,422.67C1719.635,427.74 1718.255,434.32 1713.975,437.96C1711.065,440.81 1706.395,442.42 1702.605,440.41C1697.665,437.73 1693.835,433.13 1692.015,427.83C1691.015,425.04 1691.215,421.6 1693.365,419.39C1695.395,417.99 1697.995,417.89 1700.365,417.39M1699.375,421.6C1697.895,422.13 1695.305,422.04 1695.355,424.16C1695.655,428.83 1699.125,432.56 1702.405,435.6C1704.815,437.97 1708.955,437.64 1711.175,435.15C1714.085,432.15 1716.065,426.67 1712.615,423.33C1709.145,419.96 1703.685,420.72 1699.375,421.6z" stroke-width="0.5" stroke="#010000" fill="#010000"/>
   <path id="imagebot_189" d="M1625.375,425.01C1625.595,421.88 1628.085,419.73 1630.265,417.77C1631.395,424.39 1634.715,430.92 1640.605,434.48C1645.405,437.44 1651.255,436.85 1656.615,437.65C1665.295,438.86 1672.435,444.4 1680.405,447.6C1687.785,450.69 1695.925,450.49 1703.735,451.5C1715.275,452.99 1726.785,455.66 1737.305,460.77C1740.765,462.54 1744.895,463.39 1747.565,466.43C1738.025,466.3 1728.655,464.16 1719.235,462.92C1695.905,459.35 1672.205,455.95 1650.325,446.68C1643.255,443.45 1636.085,440.03 1630.385,434.63C1627.925,431.98 1625.084,428.89 1625.375,425.01z" stroke-width="0.5" stroke="#C6C1C1" fill="#C6C1C1"/>
   <path id="imagebot_190" d="M1699.375,421.6C1703.685,420.72 1709.145,419.96 1712.615,423.33C1716.065,426.67 1714.085,432.15 1711.175,435.15C1708.955,437.64 1704.815,437.97 1702.405,435.6C1699.125,432.56 1695.655,428.83 1695.355,424.16C1695.305,422.04 1697.895,422.13 1699.375,421.6z" stroke-width="0.5" stroke="#FB8A81" fill="#FB8A81"/>
   <path id="imagebot_191" d="M1759.334,421.23C1770.434,419.63 1781.784,421.26 1792.454,424.54C1798.734,426.3 1804.734,429.17 1809.994,433.04C1813.074,435.65 1816.224,438.91 1816.774,443.1C1817.374,447.82 1813.784,451.79 1810.044,454.07C1798.314,460.94 1784.364,462.58 1771.014,462.59C1760.894,462.16 1749.824,461.08 1741.804,454.24C1735.074,448.57 1734.614,437.66 1739.814,430.86C1744.224,424.61 1752.155,422.4 1759.334,421.23M1768.334,423.3C1765.474,424.17 1762.594,425.33 1760.344,427.35C1759.544,428.08 1758.504,429.49 1759.394,430.53C1762.634,434.92 1766.704,438.89 1771.664,441.3C1775.494,443.09 1780.884,443.38 1783.844,439.83C1787.884,435.64 1787.404,427.86 1782.434,424.61C1778.265,421.98 1772.935,421.99 1768.334,423.3M1747.115,431.92C1741.445,436 1739.795,443.94 1741.655,450.39C1742.345,453.19 1745.115,455.1 1747.995,454.77C1753.355,455.13 1756.395,449.8 1760.955,447.93C1763.855,446.77 1766.915,443.66 1764.715,440.44C1760.495,435.12 1753.285,433.79 1747.115,431.92M1796.365,433.17C1791.845,435.43 1787.885,438.98 1785.505,443.46C1783.525,447.21 1785.725,451.79 1789.065,453.92C1794.455,457.01 1802.835,455.08 1804.805,448.72C1806.215,443.34 1802.805,438.28 1799.925,434.05C1799.224,432.61 1797.604,432.2 1796.365,433.17M1768.865,444.9C1765.085,448.18 1762.055,452.76 1761.845,457.89C1767.305,459.84 1773.225,460.73 1779.025,460.28C1782.315,460.11 1785.655,457.53 1785.555,454C1785.505,446.31 1775.334,440.62 1768.865,444.9z" stroke-width="0.5" stroke="#F81403" fill="#F81403"/>
   <path id="imagebot_192" d="M2020.495,425.46C2024.505,422.26 2029.915,421.64 2034.855,422.34C2036.795,425.84 2038.115,429.67 2038.315,433.7C2034.325,431.6 2030.195,428.22 2025.415,429.35C2022.325,429.96 2021.985,433.62 2020.785,435.96C2018.365,433.09 2017.505,428.23 2020.495,425.46z" stroke-width="0.5" stroke="#2CA426" fill="#2CA426"/>
   <path id="imagebot_193" d="M1768.334,423.3C1772.934,421.99 1778.264,421.98 1782.434,424.61C1787.404,427.86 1787.884,435.64 1783.844,439.83C1780.884,443.38 1775.494,443.09 1771.664,441.3C1766.704,438.89 1762.634,434.92 1759.394,430.53C1758.504,429.49 1759.544,428.08 1760.344,427.35C1762.594,425.33 1765.474,424.17 1768.334,423.3M1764.005,429.85C1767.615,433.96 1772.035,438.63 1777.985,438.42C1783.145,437.98 1784.285,430.37 1780.055,427.89C1775.094,424.88 1768.385,426.5 1764.005,429.85z" stroke-width="0.5" stroke="#010000" fill="#010000"/>
   <path id="imagebot_194" d="M1729.604,424.88C1732.674,424.64 1735.774,424.78 1738.854,425.1C1736.644,428.13 1734.774,431.38 1733.034,434.7C1730.854,431.91 1728.775,428.59 1729.604,424.88z" stroke-width="0.5" stroke="#E47D75" fill="#E47D75"/>
   <path id="imagebot_195" d="M1764.005,429.85C1768.385,426.5 1775.095,424.88 1780.055,427.89C1784.285,430.37 1783.145,437.98 1777.985,438.42C1772.035,438.63 1767.615,433.96 1764.005,429.85z" stroke-width="0.5" stroke="#FB8B82" fill="#FB8B82"/>
   <path id="imagebot_196" d="M2121.764,437.79C2125.414,432.65 2131.724,430.6 2137.744,429.97C2138.524,430.96 2139.344,431.95 2140.184,432.94C2133.994,436.15 2127.094,439.22 2123.284,445.37C2121.554,447.99 2123.384,450.83 2124.634,453.2C2122.534,454.39 2119.314,455.64 2117.764,453.01C2117.504,447.7 2118.044,441.93 2121.764,437.79z" stroke-width="0.5" stroke="#2CA426" fill="#2CA426"/>
   <path id="imagebot_197" d="M2214.615,441.6C2220.105,440.09 2221.075,433.84 2224.215,429.94C2227.405,430.78 2230.405,432.21 2233.455,433.48C2235.935,435.73 2235.455,440.73 2232.375,442.4C2227.175,445.55 2221.025,447.01 2214.985,447.19C2211.075,447.42 2207.585,445.5 2204.085,444.11C2201.585,447.22 2205.565,449.19 2207.595,450.96C2204.725,456.48 2198.205,454.87 2193.175,455.23C2188.875,456.83 2188.375,462.49 2184.685,464.83C2179.185,466.48 2173.305,465.06 2168.005,463.34C2171.875,462.82 2176.025,461.74 2178.735,458.72C2180.675,456.29 2181.535,453.23 2182.685,450.39C2188.245,450.27 2194.905,452.83 2199.345,448.23C2196.325,444.98 2193.125,441.84 2190.955,437.94C2198.914,438.66 2206.474,443.71 2214.615,441.6z" stroke-width="0.5" stroke="#2CA326" fill="#2CA326"/>
   <path id="imagebot_198" d="M1747.115,431.92C1753.285,433.79 1760.495,435.12 1764.715,440.44C1766.915,443.66 1763.855,446.77 1760.955,447.93C1756.395,449.8 1753.355,455.13 1747.995,454.77C1745.115,455.1 1742.345,453.19 1741.655,450.39C1739.795,443.94 1741.444,436 1747.115,431.92M1745.645,449.4C1746.845,451.61 1749.825,450.78 1751.445,449.53C1754.615,447.13 1757.835,444.81 1761.305,442.83C1758.005,438.81 1752.715,437.55 1747.885,436.49C1745.425,440.17 1743.714,445.14 1745.645,449.4z" stroke-width="0.5" stroke="#010000" fill="#010000"/>
   <path id="imagebot_199" d="M1796.365,433.17C1797.605,432.2 1799.225,432.61 1799.925,434.05C1802.805,438.28 1806.215,443.34 1804.805,448.72C1802.835,455.08 1794.455,457.01 1789.065,453.92C1785.725,451.79 1783.525,447.21 1785.505,443.46C1787.885,438.98 1791.844,435.43 1796.365,433.17M1789.245,448.63C1791.965,452.62 1798.825,452.12 1800.925,447.83C1801.915,443.79 1799.145,440.2 1797.045,437.04C1793.635,440.07 1787.815,443.22 1789.245,448.63z" stroke-width="0.5" stroke="#010000" fill="#010000"/>
   <path id="imagebot_200" d="M1745.645,449.4C1743.715,445.14 1745.425,440.17 1747.885,436.49C1752.715,437.55 1758.005,438.81 1761.305,442.83C1757.835,444.81 1754.615,447.13 1751.445,449.53C1749.824,450.78 1746.844,451.61 1745.645,449.4z" stroke-width="0.5" stroke="#FB8B81" fill="#FB8B81"/>
   <path id="imagebot_201" d="M1789.245,448.63C1787.815,443.22 1793.635,440.07 1797.045,437.04C1799.145,440.2 1801.915,443.79 1800.925,447.83C1798.824,452.12 1791.964,452.62 1789.245,448.63z" stroke-width="0.5" stroke="#FB8B81" fill="#FB8B81"/>
   <path id="imagebot_202" d="M2001.885,448.91C2004.245,443.02 2010.235,437.67 2016.955,438.85C2018.995,439.02 2020.135,440.85 2021.325,442.3C2016.575,443.66 2010.595,446.23 2010.195,451.9C2011.015,454.76 2014.055,456.31 2016.275,458.08C2011.565,458.21 2006.515,458.2 2002.325,455.79C1999.545,454.37 2000.995,451.05 2001.885,448.91z" stroke-width="0.5" stroke="#2CA426" fill="#2CA426"/>
   <path id="imagebot_203" d="M1821.194,442.6C1824.074,443.72 1826.124,446.34 1827.254,449.15C1828.074,451.89 1825.644,454.21 1823.564,455.56C1820.154,457.88 1815.934,458.31 1811.934,458C1813.994,456.05 1816.364,454.4 1818.164,452.18C1820.185,449.4 1820.525,445.87 1821.194,442.6z" stroke-width="0.5" stroke="#31B62A" fill="#31B62A"/>
   <path id="imagebot_204" d="M1768.865,444.9C1775.335,440.62 1785.505,446.31 1785.555,454C1785.655,457.53 1782.315,460.11 1779.025,460.28C1773.225,460.73 1767.305,459.84 1761.845,457.89C1762.055,452.76 1765.084,448.18 1768.865,444.9M1766.615,455.03C1771.245,455.71 1776.155,457.16 1780.745,455.51C1782.605,454 1781.145,451.48 1779.895,450.11C1777.805,448.34 1774.875,447.06 1772.145,447.79C1769.435,449.31 1767.515,452.09 1766.615,455.03z" stroke-width="0.5" stroke="#010000" fill="#010000"/>
   <path id="imagebot_205" d="M1766.615,455.03C1767.515,452.09 1769.435,449.31 1772.145,447.79C1774.875,447.06 1777.805,448.34 1779.895,450.11C1781.145,451.48 1782.605,454 1780.745,455.51C1776.155,457.16 1771.245,455.71 1766.615,455.03z" stroke-width="0.5" stroke="#FC8B82" fill="#FC8B82"/>
   <path id="imagebot_206" d="M1838.925,458.86C1844.125,457.93 1847.985,453.83 1851.875,450.55C1856.125,454.27 1860.985,458.7 1867.015,458.45C1870.895,458.14 1872.715,454.36 1873.895,451.15C1881.295,459.6 1891.915,465.06 1903.155,465.81C1917.825,466.93 1932.005,461.68 1945.035,455.52C1952.795,456.89 1960.475,458.88 1968.345,459.72C1978.755,461.17 1989.355,460.73 1999.725,459.43C2012.455,464.38 2026.275,461.52 2039.405,460.28C2042.545,459.51 2044.915,462.48 2047.985,462.44C2053.885,462.06 2059.005,458.8 2064.165,456.23C2070.145,458.74 2076.625,459.87 2083.165,459.09C2081.045,459.68 2078.965,460.35 2076.905,461.02C2066.035,464.75 2054.395,465.17 2043.015,465.3C2032.715,465.51 2022.285,463.95 2012.125,466.22C2004.605,467.88 1997.055,469.96 1989.285,469.6C1977.775,469.61 1966.495,466.1 1954.965,467.05C1945.115,467.58 1935.895,471.8 1926.035,472.22C1917.585,472.61 1908.975,472.52 1900.785,470.24C1895.185,468.83 1889.875,466.18 1884.045,465.92C1877.705,465.51 1870.955,466.92 1865.045,463.94C1860.415,461.66 1855.515,458.89 1850.155,460.15C1839.745,462.06 1829.275,463.69 1818.685,464.13C1818.755,463.26 1818.835,462.39 1818.945,461.52C1823.445,460.92 1827.235,458.28 1830.245,454.99C1832.714,456.99 1835.435,459.55 1838.925,458.86z" stroke-width="0.5" stroke="#B3AEAE" fill="#B3AEAE"/>
   <path id="imagebot_207" d="M1717.935,484.25C1741.105,486.41 1764.265,488.92 1787.515,490.21C1811.825,492.05 1836.155,493.75 1860.485,495.3C1917.955,498.1 1975.435,501.74 2032.995,501.69C2058.435,501.62 2084.015,502.18 2109.265,498.53C2138.485,496.85 2167.775,496.07 2196.915,493.18C2210.965,491.74 2225.025,490.34 2239.025,488.42C2224.885,495.64 2209.765,500.63 2194.785,505.78C2179.905,510.53 2164.875,514.83 2149.745,518.72C2137.475,521.25 2125.335,524.82 2112.765,525.5C2090.885,527.01 2068.925,526.72 2047.005,527.13C1994.635,527.32 1942.265,526.43 1889.945,524.59C1864.325,523.36 1838.505,521.79 1813.615,515.19C1795.315,510.97 1777.405,505.27 1759.555,499.47C1745.625,494.56 1731.574,489.93 1717.935,484.25z" stroke-width="0.5" stroke="#C6C1C1" fill="#C6C1C1"/>
  </g>
 </g>
</svg>